<?xml version="1.0" encoding="utf-8"?>
<!-- Generator: Adobe Illustrator 20.1.0, SVG Export Plug-In . SVG Version: 6.00 Build 0)  -->
<svg version="1.1" id="Layer_1" xmlns="http://www.w3.org/2000/svg" xmlns:xlink="http://www.w3.org/1999/xlink" x="0px" y="0px"
	 viewBox="0 0 1600 1034.7" style="enable-background:new 0 0 1600 1034.7;" xml:space="preserve">
<style type="text/css">
	.st0{fill:#082E51;}
	.st1{fill:none;stroke:#007BFF;stroke-width:4;stroke-miterlimit:10;}
	.st2{fill:none;stroke:#007BFF;stroke-width:4;stroke-linecap:round;stroke-miterlimit:10;}
	.st3{fill:#007BFF;}
	.st4{fill:#FFFFFF;}
</style>
<g>
	<path class="st0" d="M68.2,48.1v26.2c0,9.6-5.6,15.3-16,15.3s-16-5.6-16-15.3V48.1h5.1v26.1c0,6.4,3.8,10.7,10.9,10.7
		s10.9-4.3,10.9-10.7V48.1H68.2z"/>
	<path class="st0" d="M78.5,48.1H87l10.3,19.1h1.3l10.1-19.1h8.6v40.7h-5V53.9H111l-10.4,19.3h-5.4L84.7,53.9h-1.3v34.9h-5V48.1
		H78.5z"/>
	<path class="st0" d="M155.6,84v4.8h-28V48.1h5.1V84H155.6z"/>
</g>
<rect x="36.1" y="170.6" class="st1" width="261" height="211.5"/>
<g>
	<path class="st2" d="M624.3,271.8l5.5,5.5c1.1,1.1,1.1,2.9,0,4.1l-5.5,5.5"/>
	<line class="st2" x1="623.7" y1="279.3" x2="36.1" y2="279.3"/>
</g>
<g>
	<path class="st2" d="M1239.2,773.5l5.5,5.5c1.1,1.1,1.1,2.9,0,4.1l-5.5,5.5"/>
	<line class="st2" x1="1238.6" y1="781" x2="998" y2="781"/>
</g>
<g>
	<path class="st2" d="M816.2,444.5l5.5-5.5c1.1-1.1,2.9-1.1,4.1,0l5.5,5.5"/>
	<line class="st2" x1="823.7" y1="445.1" x2="823.7" y2="606"/>
</g>
<line class="st2" x1="36.1" y1="266" x2="297.1" y2="266"/>
<rect x="637.5" y="128.6" class="st2" width="376.6" height="300"/>
<line class="st2" x1="637.5" y1="223.3" x2="1014.1" y2="223.3"/>
<line class="st2" x1="1014.1" y1="236" x2="637.5" y2="236"/>
<rect x="637.5" y="606" class="st1" width="360.5" height="360.5"/>
<line class="st2" x1="637.5" y1="701" x2="998" y2="701"/>
<line class="st2" x1="998" y1="713" x2="637.5" y2="713"/>
<rect x="1252" y="563" class="st2" width="311" height="434"/>
<line class="st2" x1="1252" y1="659" x2="1563" y2="659"/>
<line class="st2" x1="1563" y1="760" x2="1252" y2="760"/>
<g>
	<path class="st0" d="M507.3,248.5v-2h7.4v2H507.3z"/>
	<path class="st0" d="M531.2,248.2c0,4-2.2,7.2-6,7.2c-2.2,0-3.5-0.9-4.2-1.8h-0.6v1.5h-2.2v-19.6h2.3v7.5h0.6c0.7-1,2-1.8,4.2-1.8
		C529,241,531.2,244.1,531.2,248.2z M528.9,248.2c0-3-1.5-5.2-4.2-5.2c-3,0-4.3,2.5-4.3,5.2s1.2,5.2,4.3,5.2
		C527.5,253.4,528.9,251.2,528.9,248.2z"/>
	<path class="st0" d="M536.9,241.4v8.2c0,2.5,1.2,3.8,3.5,3.8c2.4,0,4-2.1,4-4.5v-7.4h2.3V255h-2.2v-1.5h-0.6
		c-0.8,1.1-2.3,1.8-4.1,1.8c-3.3,0-5.2-2.1-5.2-5.3v-8.6H536.9z"/>
	<path class="st0" d="M551.1,237.9v-2.5h2.4v2.5H551.1z M553.5,255h-2.3v-13.6h2.3V255z"/>
	<path class="st0" d="M560.3,235.4V255H558v-19.6H560.3z"/>
	<path class="st0" d="M576.9,235.4V255h-2.2v-1.5h-0.6c-0.8,0.9-2.1,1.8-4.2,1.8c-3.8,0-6-3.1-6-7.2c0-4.1,2.2-7.2,6-7.2
		c2.2,0,3.4,0.8,4.2,1.8h0.6v-7.5h2.2V235.4z M574.6,248.2c0-2.7-1.2-5.2-4.3-5.2c-2.7,0-4.2,2.1-4.2,5.2c0,3,1.5,5.2,4.2,5.2
		C573.4,253.4,574.6,250.9,574.6,248.2z"/>
	<path class="st0" d="M593.1,248.2h-10.4c0.1,3.2,1.5,5.2,4.3,5.2c1.9,0,3.1-0.8,3.5-2.1h2.3c-0.4,2.3-2.4,4.1-5.8,4.1
		c-4.2,0-6.6-3.1-6.6-7.3s2.4-7,6.6-7c4,0,6,3,6.1,6.3L593.1,248.2L593.1,248.2z M582.9,246.3h7.9c-0.1-1.7-1.5-3.2-3.8-3.2
		C584.5,243,583.2,244.5,582.9,246.3z"/>
	<path class="st0" d="M604.5,243.6h-1.1c-2.7,0-4.3,1.6-4.3,4.6v6.8h-2.3v-13.6h2.2v1.6h0.6c0.7-0.8,2-1.6,3.9-1.6h1L604.5,243.6
		L604.5,243.6z"/>
</g>
<g>
	<path class="st0" d="M1110.3,753.5v-2h7.4v2H1110.3z"/>
	<path class="st0" d="M1123.4,746.4v1.5h0.6c0.8-0.9,2.1-1.8,4.2-1.8c3.8,0,6,3.1,6,7.2c0,4.1-2.2,7.2-6,7.2c-2.2,0-3.4-0.8-4.2-1.8
		h-0.6v6.9h-2.3v-19h2.3V746.4z M1123.5,753.2c0,2.7,1.2,5.2,4.3,5.2c2.7,0,4.2-2.1,4.2-5.2c0-3-1.5-5.2-4.2-5.2
		C1124.7,748,1123.5,750.5,1123.5,753.2z"/>
	<path class="st0" d="M1145.6,748.6h-1.1c-2.7,0-4.3,1.6-4.3,4.6v6.8h-2.3v-13.6h2.2v1.6h0.6c0.7-0.8,2-1.6,3.9-1.6h1L1145.6,748.6
		L1145.6,748.6z"/>
	<path class="st0" d="M1161.2,753.2c0,4-2.5,7.2-6.7,7.2c-4.3,0-6.7-3.1-6.7-7.2s2.4-7.2,6.7-7.2
		C1158.7,746,1161.2,749.2,1161.2,753.2z M1158.9,753.2c0-2.7-1.4-5.2-4.4-5.2s-4.4,2.5-4.4,5.2s1.4,5.2,4.4,5.2
		S1158.9,755.9,1158.9,753.2z"/>
	<path class="st0" d="M1176.9,740.4V760h-2.2v-1.5h-0.6c-0.8,0.9-2.1,1.8-4.2,1.8c-3.8,0-6-3.1-6-7.2c0-4.1,2.2-7.2,6-7.2
		c2.2,0,3.4,0.8,4.2,1.8h0.6v-7.5h2.2V740.4z M1174.7,753.2c0-2.7-1.2-5.2-4.3-5.2c-2.7,0-4.2,2.1-4.2,5.2c0,3,1.5,5.2,4.2,5.2
		C1173.4,758.4,1174.7,755.9,1174.7,753.2z"/>
	<path class="st0" d="M1183.4,746.4v8.2c0,2.5,1.2,3.8,3.5,3.8c2.4,0,4-2.1,4-4.5v-7.4h2.3V760h-2.2v-1.5h-0.6
		c-0.8,1.1-2.3,1.8-4.1,1.8c-3.3,0-5.2-2.1-5.2-5.3v-8.6H1183.4z"/>
	<path class="st0" d="M1209.2,755.9c-0.5,2.7-2.6,4.5-5.7,4.5c-4.2,0-6.6-3.1-6.6-7.2c0-4.1,2.4-7.2,6.6-7.2c3.2,0,5.2,1.8,5.6,4.3
		h-2.3c-0.4-1.4-1.5-2.3-3.3-2.3c-3.1,0-4.3,2.4-4.3,5.1c0,2.7,1.3,5.2,4.3,5.2c1.9,0,3.1-0.9,3.4-2.5h2.3V755.9z"/>
	<path class="st0" d="M1219.2,746.4v2h-3.4v7.5c0,1.4,0.6,2.1,2.4,2.1h1v2.1h-1.1c-2.9,0-4.7-0.9-4.7-3.8v-7.8h-2.3v-2h2.3v-4.1h2.3
		v4.1L1219.2,746.4L1219.2,746.4z"/>
</g>
<g>
	<path class="st0" d="M577.4,305.6c0,6.8-3,9.8-7,9.8s-6.9-3-6.9-9.8s2.9-9.8,6.9-9.8C574.5,295.8,577.4,298.8,577.4,305.6z
		 M575.1,305.6c0-4.7-1.4-7.7-4.6-7.7c-3.1,0-4.6,3-4.6,7.7s1.4,7.7,4.6,7.7C573.6,313.3,575.1,310.3,575.1,305.6z"/>
	<path class="st0" d="M580,315.1V312h2.8v3.1H580z"/>
	<path class="st0" d="M587,315.1V312h2.8v3.1H587z"/>
	<path class="st0" d="M593.5,313h4.5v-14.3h-0.5l-4,2.7v-2.5l3.9-2.7h2.9V313h4.1v2.1h-11L593.5,313L593.5,313z"/>
</g>
<g>
	<path class="st0" d="M1192.2,808.6c0,6.8-3,9.8-7,9.8s-6.9-3-6.9-9.8s2.9-9.8,6.9-9.8S1192.2,801.8,1192.2,808.6z M1189.8,808.6
		c0-4.7-1.4-7.7-4.6-7.7c-3.1,0-4.6,3-4.6,7.7s1.4,7.7,4.6,7.7S1189.8,813.3,1189.8,808.6z"/>
	<path class="st0" d="M1194.8,818.1V815h2.8v3.1H1194.8z"/>
	<path class="st0" d="M1201.7,818.1V815h2.8v3.1H1201.7z"/>
	<path class="st0" d="M1208.2,816h4.5v-14.3h-0.5l-4,2.7v-2.5l3.9-2.7h2.9V816h4.1v2.1h-11L1208.2,816L1208.2,816z"/>
</g>
<g>
	<path class="st0" d="M734.3,160.8l-13.6-6V153l13.6-6v2.1l-10.5,4.6v0.6l10.5,4.5V160.8z"/>
	<path class="st0" d="M752.6,160.8l-13.6-6V153l13.6-6v2.1l-10.5,4.6v0.6l10.5,4.5V160.8z"/>
	<path class="st0" d="M756,155.8h2.4c0.2,2.7,1.6,3.9,3.8,3.9s3.6-1.3,3.6-4.3v-13.1h2.4v13.1c0,4.1-2.3,6.5-6.1,6.5
		C758.7,161.9,756.2,159.8,756,155.8z"/>
	<path class="st0" d="M781.5,160.2H781c-0.8,1.1-2.3,1.8-4.2,1.8c-3.1,0-4.9-2.1-4.9-4.4c0-2.2,1.4-4.5,5.2-4.5h4.4v-0.5
		c0-1.6-0.9-2.8-3.3-2.8c-2,0-3.1,0.8-3.2,2h-2.3c0.2-2.5,2.3-4,5.4-4c3.4,0,5.6,1.6,5.6,4.7v9.3h-2.2V160.2z M781.5,156.1v-1.2
		h-4.1c-2.2,0-3.3,1-3.3,2.6c0,1.5,1.1,2.5,3.2,2.5C779.6,159.9,781.5,158.2,781.5,156.1z"/>
	<path class="st0" d="M786.3,148h2.4l3.8,11.4h1.1l3.7-11.4h2.4l-4.6,13.6h-4.3L786.3,148z"/>
	<path class="st0" d="M810.9,160.2h-0.6c-0.8,1.1-2.3,1.8-4.2,1.8c-3.1,0-4.9-2.1-4.9-4.4c0-2.2,1.4-4.5,5.2-4.5h4.4v-0.5
		c0-1.6-0.9-2.8-3.3-2.8c-2,0-3,0.8-3.2,2H802c0.2-2.5,2.3-4,5.4-4c3.4,0,5.6,1.6,5.6,4.7v9.3h-2.2v-1.6H810.9z M810.8,156.1v-1.2
		h-4.1c-2.2,0-3.3,1-3.3,2.6c0,1.5,1.1,2.5,3.2,2.5C808.9,159.9,810.8,158.2,810.8,156.1z"/>
	<path class="st0" d="M840.6,156.1c-0.8,3.4-3.4,5.8-7.6,5.8c-5.8,0-8.9-4.3-8.9-10s3.2-10,8.9-10c3.9,0,6.6,2.1,7.4,5.4h-2.6
		c-0.7-2.1-2.2-3.2-4.8-3.2c-4.5,0-6.5,3.7-6.5,7.8s2,7.8,6.5,7.8c2.7,0,4.5-1.4,5.1-3.6H840.6z"/>
	<path class="st0" d="M846.4,142v19.6h-2.3V142H846.4z"/>
	<path class="st0" d="M859.5,160.2h-0.6c-0.8,1.1-2.3,1.8-4.2,1.8c-3.1,0-4.9-2.1-4.9-4.4c0-2.2,1.4-4.5,5.2-4.5h4.4v-0.5
		c0-1.6-0.9-2.8-3.3-2.8c-2,0-3.1,0.8-3.2,2h-2.3c0.2-2.5,2.3-4,5.4-4c3.4,0,5.6,1.6,5.6,4.7v9.3h-2.2L859.5,160.2L859.5,160.2z
		 M859.4,156.1v-1.2h-4.1c-2.2,0-3.3,1-3.3,2.6c0,1.5,1.1,2.5,3.2,2.5C857.5,159.9,859.4,158.2,859.4,156.1z"/>
	<path class="st0" d="M871,153.3l1.5,0.2c2.4,0.4,3.9,1.6,3.9,4.1c0,2.2-1.9,4.3-5.6,4.3c-3.9,0-5.7-1.7-6-4.3h2.3
		c0.2,1.5,1.6,2.3,3.6,2.3c2.1,0,3.4-0.7,3.4-2.2c0-1.2-0.8-1.8-2.5-2.1l-3.1-0.5c-1.9-0.4-3.3-1.4-3.3-3.4c0-2.3,1.7-4,5.4-4
		c3.2,0,5.1,1.5,5.4,3.9h-2.3c-0.2-1.3-1.5-1.9-3.2-1.9c-1.8,0-2.9,0.6-2.9,1.8c0,1.1,0.7,1.5,2.1,1.7L871,153.3z"/>
	<path class="st0" d="M884.9,153.3l1.5,0.2c2.4,0.4,3.9,1.6,3.9,4.1c0,2.2-1.9,4.3-5.6,4.3c-3.9,0-5.7-1.7-6-4.3h2.3
		c0.2,1.5,1.6,2.3,3.6,2.3c2.1,0,3.4-0.7,3.4-2.2c0-1.2-0.8-1.8-2.5-2.1l-3.1-0.5c-1.9-0.4-3.3-1.4-3.3-3.4c0-2.3,1.7-4,5.4-4
		c3.2,0,5.1,1.5,5.4,3.9h-2.3c-0.2-1.3-1.5-1.9-3.2-1.9c-1.8,0-2.9,0.6-2.9,1.8c0,1.1,0.7,1.5,2.1,1.7L884.9,153.3z"/>
	<path class="st0" d="M893.8,158.8l10.4-4.5v-0.6l-10.4-4.6V147l13.6,6v1.9l-13.6,6V158.8z"/>
	<path class="st0" d="M912.1,158.8l10.4-4.5v-0.6l-10.4-4.6V147l13.6,6v1.9l-13.6,6V158.8z"/>
</g>
<g>
	<path class="st0" d="M721.7,637.8l-13.6-6V630l13.6-6v2.1l-10.5,4.6v0.6l10.5,4.5V637.8z"/>
	<path class="st0" d="M740,637.8l-13.6-6V630l13.6-6v2.1l-10.5,4.6v0.6l10.5,4.5V637.8z"/>
	<path class="st0" d="M743.3,632.8h2.4c0.2,2.7,1.6,3.9,3.8,3.9s3.6-1.3,3.6-4.3v-13.1h2.4v13.1c0,4.1-2.3,6.5-6.1,6.5
		C746,638.9,743.6,636.8,743.3,632.8z"/>
	<path class="st0" d="M768.9,637.2h-0.6c-0.8,1.1-2.3,1.8-4.2,1.8c-3.1,0-4.9-2.1-4.9-4.4c0-2.2,1.4-4.5,5.2-4.5h4.4v-0.5
		c0-1.6-0.9-2.8-3.3-2.8c-2,0-3.1,0.8-3.2,2H760c0.2-2.5,2.3-4,5.4-4c3.4,0,5.6,1.6,5.6,4.7v9.3h-2.2L768.9,637.2L768.9,637.2z
		 M768.8,633.1v-1.2h-4.1c-2.2,0-3.3,1-3.3,2.6c0,1.5,1.1,2.5,3.2,2.5C766.9,636.9,768.8,635.2,768.8,633.1z"/>
	<path class="st0" d="M773.7,625h2.4l3.8,11.4h1.1l3.7-11.4h2.4l-4.6,13.6h-4.3L773.7,625z"/>
	<path class="st0" d="M798.2,637.2h-0.6c-0.8,1.1-2.3,1.8-4.2,1.8c-3.1,0-4.9-2.1-4.9-4.4c0-2.2,1.4-4.5,5.2-4.5h4.4v-0.5
		c0-1.6-0.9-2.8-3.3-2.8c-2,0-3.1,0.8-3.2,2h-2.3c0.2-2.5,2.3-4,5.4-4c3.4,0,5.6,1.6,5.6,4.7v9.3h-2.2L798.2,637.2L798.2,637.2z
		 M798.1,633.1v-1.2H794c-2.2,0-3.3,1-3.3,2.6c0,1.5,1.1,2.5,3.2,2.5C796.2,636.9,798.1,635.2,798.1,633.1z"/>
	<path class="st0" d="M827.9,633.1c-0.8,3.4-3.4,5.8-7.6,5.8c-5.8,0-8.9-4.3-8.9-10s3.2-10,8.9-10c3.9,0,6.6,2.1,7.4,5.4h-2.6
		c-0.7-2.1-2.2-3.2-4.8-3.2c-4.5,0-6.5,3.7-6.5,7.8s2,7.8,6.5,7.8c2.7,0,4.5-1.4,5.1-3.6H827.9z"/>
	<path class="st0" d="M833.8,619v19.6h-2.3V619H833.8z"/>
	<path class="st0" d="M846.9,637.2h-0.6c-0.8,1.1-2.3,1.8-4.2,1.8c-3.1,0-4.9-2.1-4.9-4.4c0-2.2,1.4-4.5,5.2-4.5h4.4v-0.5
		c0-1.6-0.9-2.8-3.3-2.8c-2,0-3.1,0.8-3.2,2H838c0.2-2.5,2.3-4,5.4-4c3.4,0,5.6,1.6,5.6,4.7v9.3h-2.2L846.9,637.2L846.9,637.2z
		 M846.8,633.1v-1.2h-4.1c-2.2,0-3.3,1-3.3,2.6c0,1.5,1.1,2.5,3.2,2.5C844.9,636.9,846.8,635.2,846.8,633.1z"/>
	<path class="st0" d="M858.3,630.3l1.5,0.2c2.4,0.4,3.9,1.6,3.9,4.1c0,2.2-1.9,4.3-5.6,4.3c-3.9,0-5.7-1.7-6-4.3h2.3
		c0.2,1.5,1.6,2.3,3.6,2.3c2.1,0,3.4-0.7,3.4-2.2c0-1.2-0.8-1.8-2.5-2.1l-3.1-0.5c-1.9-0.4-3.3-1.4-3.3-3.4c0-2.3,1.7-4,5.4-4
		c3.2,0,5.1,1.5,5.4,3.9H861c-0.2-1.3-1.5-1.9-3.2-1.9c-1.8,0-2.9,0.6-2.9,1.8c0,1.1,0.7,1.5,2.1,1.7L858.3,630.3z"/>
	<path class="st0" d="M872.2,630.3l1.5,0.2c2.4,0.4,3.9,1.6,3.9,4.1c0,2.2-1.9,4.3-5.6,4.3c-3.9,0-5.7-1.7-6-4.3h2.3
		c0.2,1.5,1.6,2.3,3.6,2.3c2.1,0,3.4-0.7,3.4-2.2c0-1.2-0.8-1.8-2.5-2.1l-3.1-0.5c-1.9-0.4-3.3-1.4-3.3-3.4c0-2.3,1.7-4,5.4-4
		c3.2,0,5.1,1.5,5.4,3.9h-2.3c-0.2-1.3-1.5-1.9-3.2-1.9c-1.8,0-2.9,0.6-2.9,1.8c0,1.1,0.7,1.5,2.1,1.7L872.2,630.3z"/>
	<path class="st0" d="M881.1,635.8l10.4-4.5v-0.6l-10.4-4.6V624l13.6,6v1.9l-13.6,6V635.8z"/>
	<path class="st0" d="M899.5,635.8l10.4-4.5v-0.6l-10.4-4.6V624l13.6,6v1.9l-13.6,6V635.8z"/>
</g>
<g>
	<path class="st0" d="M1318.5,595.8l-13.6-6V588l13.6-6v2.1l-10.5,4.6v0.6l10.5,4.5V595.8z"/>
	<path class="st0" d="M1336.8,595.8l-13.6-6V588l13.6-6v2.1l-10.5,4.6v0.6l10.5,4.5V595.8z"/>
	<path class="st0" d="M1340.2,590.8h2.4c0.2,2.7,1.6,3.9,3.8,3.9c2.2,0,3.6-1.3,3.6-4.3v-13.1h2.4v13.1c0,4.1-2.3,6.5-6.1,6.5
		C1342.9,596.9,1340.4,594.8,1340.2,590.8z"/>
	<path class="st0" d="M1365.8,595.2h-0.6c-0.8,1.1-2.3,1.8-4.2,1.8c-3.1,0-4.9-2.1-4.9-4.4c0-2.2,1.4-4.5,5.2-4.5h4.4v-0.5
		c0-1.6-0.9-2.8-3.3-2.8c-2,0-3.1,0.8-3.2,2h-2.3c0.2-2.5,2.3-4,5.4-4c3.4,0,5.6,1.6,5.6,4.7v9.3h-2.2L1365.8,595.2L1365.8,595.2z
		 M1365.7,591.1v-1.2h-4.1c-2.2,0-3.3,1-3.3,2.6c0,1.5,1.1,2.5,3.2,2.5C1363.8,594.9,1365.7,593.2,1365.7,591.1z"/>
	<path class="st0" d="M1370.5,583h2.4l3.8,11.4h1.1l3.7-11.4h2.4l-4.6,13.6h-4.3L1370.5,583z"/>
	<path class="st0" d="M1395.1,595.2h-0.6c-0.8,1.1-2.3,1.8-4.2,1.8c-3.1,0-4.9-2.1-4.9-4.4c0-2.2,1.4-4.5,5.2-4.5h4.4v-0.5
		c0-1.6-0.9-2.8-3.3-2.8c-2,0-3,0.8-3.2,2h-2.3c0.2-2.5,2.3-4,5.4-4c3.4,0,5.6,1.6,5.6,4.7v9.3h-2.2L1395.1,595.2L1395.1,595.2z
		 M1395,591.1v-1.2h-4.1c-2.2,0-3.3,1-3.3,2.6c0,1.5,1.1,2.5,3.2,2.5C1393.1,594.9,1395,593.2,1395,591.1z"/>
	<path class="st0" d="M1424.8,591.1c-0.8,3.4-3.4,5.8-7.6,5.8c-5.8,0-8.9-4.3-8.9-10s3.2-10,8.9-10c3.9,0,6.6,2.1,7.4,5.4h-2.6
		c-0.7-2.1-2.2-3.2-4.8-3.2c-4.5,0-6.5,3.7-6.5,7.8s2,7.8,6.5,7.8c2.7,0,4.5-1.4,5.1-3.6H1424.8z"/>
	<path class="st0" d="M1430.6,577v19.6h-2.3V577H1430.6z"/>
	<path class="st0" d="M1443.7,595.2h-0.6c-0.8,1.1-2.3,1.8-4.2,1.8c-3.1,0-4.9-2.1-4.9-4.4c0-2.2,1.4-4.5,5.2-4.5h4.4v-0.5
		c0-1.6-0.9-2.8-3.3-2.8c-2,0-3.1,0.8-3.2,2h-2.3c0.2-2.5,2.3-4,5.4-4c3.4,0,5.6,1.6,5.6,4.7v9.3h-2.2L1443.7,595.2L1443.7,595.2z
		 M1443.7,591.1v-1.2h-4.1c-2.2,0-3.3,1-3.3,2.6c0,1.5,1.1,2.5,3.2,2.5C1441.7,594.9,1443.7,593.2,1443.7,591.1z"/>
	<path class="st0" d="M1455.2,588.3l1.5,0.2c2.4,0.4,3.9,1.6,3.9,4.1c0,2.2-1.9,4.3-5.6,4.3c-3.9,0-5.7-1.7-6-4.3h2.3
		c0.2,1.5,1.6,2.3,3.6,2.3c2.1,0,3.4-0.7,3.4-2.2c0-1.2-0.8-1.8-2.5-2.1l-3.1-0.5c-1.9-0.4-3.3-1.4-3.3-3.4c0-2.3,1.7-4,5.4-4
		c3.2,0,5.1,1.5,5.4,3.9h-2.3c-0.2-1.3-1.5-1.9-3.2-1.9c-1.8,0-2.9,0.6-2.9,1.8c0,1.1,0.7,1.5,2.1,1.7L1455.2,588.3z"/>
	<path class="st0" d="M1469.1,588.3l1.5,0.2c2.4,0.4,3.9,1.6,3.9,4.1c0,2.2-1.9,4.3-5.6,4.3c-3.9,0-5.7-1.7-6-4.3h2.3
		c0.2,1.5,1.6,2.3,3.6,2.3c2.1,0,3.4-0.7,3.4-2.2c0-1.2-0.8-1.8-2.5-2.1l-3.1-0.5c-1.9-0.4-3.3-1.4-3.3-3.4c0-2.3,1.7-4,5.4-4
		c3.2,0,5.1,1.5,5.4,3.9h-2.3c-0.2-1.3-1.5-1.9-3.2-1.9c-1.8,0-2.9,0.6-2.9,1.8c0,1.1,0.7,1.5,2.1,1.7L1469.1,588.3z"/>
	<path class="st0" d="M1478,593.8l10.4-4.5v-0.6l-10.4-4.6V582l13.6,6v1.9l-13.6,6V593.8z"/>
	<path class="st0" d="M1496.3,593.8l10.4-4.5v-0.6l-10.4-4.6V582l13.6,6v1.9l-13.6,6V593.8z"/>
</g>
<g>
	<path class="st0" d="M77.5,202.4l-13.6-6v-1.9l13.6-6v2.1L67,195.2v0.6l10.5,4.5V202.4z"/>
	<path class="st0" d="M95.8,202.4l-13.6-6v-1.9l13.6-6v2.1l-10.5,4.6v0.6l10.5,4.5V202.4z"/>
	<path class="st0" d="M99.1,197.4h2.4c0.2,2.7,1.6,3.9,3.8,3.9c2.2,0,3.6-1.3,3.6-4.3v-13.1h2.4V197c0,4.1-2.3,6.5-6.1,6.5
		C101.8,203.6,99.4,201.4,99.1,197.4z"/>
	<path class="st0" d="M124.7,201.8h-0.6c-0.8,1.1-2.3,1.8-4.2,1.8c-3.1,0-4.9-2.1-4.9-4.4c0-2.2,1.4-4.5,5.2-4.5h4.4v-0.5
		c0-1.6-0.9-2.8-3.3-2.8c-2,0-3.1,0.8-3.2,2h-2.3c0.2-2.5,2.3-4,5.4-4c3.4,0,5.6,1.6,5.6,4.7v9.3h-2.2L124.7,201.8L124.7,201.8z
		 M124.6,197.7v-1.2h-4.1c-2.2,0-3.3,1-3.3,2.6c0,1.5,1.1,2.5,3.2,2.5C122.7,201.6,124.6,199.9,124.6,197.7z"/>
	<path class="st0" d="M129.5,189.6h2.4l3.8,11.4h1.1l3.7-11.4h2.4l-4.6,13.6H134L129.5,189.6z"/>
	<path class="st0" d="M154,201.8h-0.6c-0.8,1.1-2.3,1.8-4.2,1.8c-3.1,0-4.9-2.1-4.9-4.4c0-2.2,1.4-4.5,5.2-4.5h4.4v-0.5
		c0-1.6-0.9-2.8-3.3-2.8c-2,0-3.1,0.8-3.2,2h-2.2c0.2-2.5,2.3-4,5.4-4c3.4,0,5.6,1.6,5.6,4.7v9.3H154V201.8z M154,197.7v-1.2h-4.1
		c-2.2,0-3.3,1-3.3,2.6c0,1.5,1.1,2.5,3.2,2.5C152,201.6,154,199.9,154,197.7z"/>
	<path class="st0" d="M183.7,197.7c-0.8,3.4-3.4,5.8-7.6,5.8c-5.7,0-8.9-4.3-8.9-10s3.2-10,8.9-10c3.9,0,6.6,2.1,7.4,5.4h-2.6
		c-0.7-2.1-2.2-3.2-4.8-3.2c-4.5,0-6.5,3.7-6.5,7.8s2,7.8,6.5,7.8c2.7,0,4.5-1.4,5.1-3.6H183.7z"/>
	<path class="st0" d="M189.6,183.6v19.6h-2.3v-19.6H189.6z"/>
	<path class="st0" d="M202.7,201.8h-0.6c-0.8,1.1-2.3,1.8-4.2,1.8c-3.1,0-4.9-2.1-4.9-4.4c0-2.2,1.4-4.5,5.2-4.5h4.4v-0.5
		c0-1.6-0.9-2.8-3.3-2.8c-2,0-3.1,0.8-3.2,2h-2.3c0.2-2.5,2.3-4,5.4-4c3.4,0,5.6,1.6,5.6,4.7v9.3h-2.2v-1.6H202.7z M202.6,197.7
		v-1.2h-4.1c-2.2,0-3.3,1-3.3,2.6c0,1.5,1.1,2.5,3.2,2.5C200.7,201.6,202.6,199.9,202.6,197.7z"/>
	<path class="st0" d="M214.1,194.9l1.5,0.2c2.4,0.4,3.9,1.6,3.9,4.1c0,2.2-1.9,4.3-5.6,4.3c-3.9,0-5.7-1.7-6-4.3h2.3
		c0.2,1.5,1.6,2.3,3.6,2.3s3.4-0.7,3.4-2.2c0-1.2-0.8-1.8-2.5-2.1l-3.1-0.5c-1.9-0.4-3.3-1.4-3.3-3.4c0-2.3,1.7-4,5.4-4
		c3.2,0,5.1,1.5,5.4,3.9h-2.3c-0.2-1.3-1.5-1.9-3.2-1.9c-1.8,0-2.9,0.6-2.9,1.8c0,1.1,0.7,1.5,2.1,1.7L214.1,194.9z"/>
	<path class="st0" d="M228,194.9l1.5,0.2c2.4,0.4,3.9,1.6,3.9,4.1c0,2.2-1.9,4.3-5.6,4.3c-3.9,0-5.7-1.7-6-4.3h2.3
		c0.2,1.5,1.6,2.3,3.6,2.3s3.4-0.7,3.4-2.2c0-1.2-0.8-1.8-2.5-2.1l-3.1-0.5c-1.9-0.4-3.3-1.4-3.3-3.4c0-2.3,1.7-4,5.4-4
		c3.2,0,5.1,1.5,5.4,3.9h-2.3c-0.2-1.3-1.5-1.9-3.2-1.9c-1.8,0-2.9,0.6-2.9,1.8c0,1.1,0.7,1.5,2.1,1.7L228,194.9z"/>
	<path class="st0" d="M237,200.4l10.4-4.5v-0.6l-10.4-4.6v-2.1l13.6,6v1.9l-13.6,6V200.4z"/>
	<path class="st0" d="M255.3,200.4l10.4-4.5v-0.6l-10.4-4.6v-2.1l13.6,6v1.9l-13.6,6V200.4z"/>
</g>
<g>
	<path class="st0" d="M696.9,751.7c-0.8,3.4-3.4,5.8-7.6,5.8c-5.7,0-8.9-4.3-8.9-10s3.2-10,8.9-10c3.9,0,6.6,2.1,7.4,5.4h-2.6
		c-0.7-2.1-2.2-3.2-4.8-3.2c-4.5,0-6.5,3.7-6.5,7.8s2,7.8,6.5,7.8c2.7,0,4.5-1.4,5.1-3.6H696.9z"/>
	<path class="st0" d="M711.9,750.4c0,4-2.5,7.2-6.7,7.2c-4.3,0-6.7-3.1-6.7-7.2c0-4,2.4-7.2,6.7-7.2
		C709.5,743.3,711.9,746.4,711.9,750.4z M709.6,750.4c0-2.7-1.4-5.2-4.4-5.2s-4.4,2.5-4.4,5.2s1.4,5.2,4.4,5.2
		C708.2,755.6,709.6,753.1,709.6,750.4z"/>
	<path class="st0" d="M724.2,757.2V749c0-2.5-1.2-3.8-3.5-3.8c-2.4,0-4,2.1-4,4.5v7.4h-2.3v-13.6h2.2v1.5h0.6
		c0.8-1.1,2.3-1.8,4.1-1.8c3.3,0,5.2,2.1,5.2,5.3v8.6L724.2,757.2L724.2,757.2z"/>
	<path class="st0" d="M741,753.1c-0.5,2.7-2.6,4.5-5.7,4.5c-4.2,0-6.6-3.1-6.6-7.2c0-4.1,2.4-7.2,6.6-7.2c3.2,0,5.2,1.8,5.6,4.3
		h-2.3c-0.4-1.4-1.5-2.3-3.3-2.3c-3.1,0-4.3,2.4-4.3,5.1c0,2.7,1.3,5.2,4.3,5.2c1.9,0,3.1-0.9,3.4-2.5h2.3V753.1z"/>
	<path class="st0" d="M751.1,745.8H750c-2.7,0-4.3,1.6-4.3,4.6v6.8h-2.3v-13.6h2.2v1.6h0.6c0.7-0.8,2-1.6,3.9-1.6h1L751.1,745.8
		L751.1,745.8z"/>
	<path class="st0" d="M764.8,750.4h-10.4c0.1,3.2,1.5,5.2,4.3,5.2c1.9,0,3.1-0.8,3.5-2.1h2.3c-0.4,2.3-2.4,4.1-5.8,4.1
		c-4.2,0-6.6-3.1-6.6-7.3s2.4-7,6.6-7c4,0,6,3,6.1,6.3L764.8,750.4L764.8,750.4z M754.5,748.5h7.9c-0.1-1.7-1.5-3.2-3.8-3.2
		C756.2,745.3,754.8,746.7,754.5,748.5z"/>
	<path class="st0" d="M773.8,743.6v2h-3.4v7.5c0,1.4,0.6,2.1,2.4,2.1h1v2.1h-1.1c-2.9,0-4.7-0.9-4.7-3.8v-7.8h-2.3v-2h2.3v-4.1h2.3
		v4.1L773.8,743.6L773.8,743.6z"/>
	<path class="st0" d="M788,750.4h-10.4c0.1,3.2,1.5,5.2,4.3,5.2c1.9,0,3.1-0.8,3.5-2.1h2.3c-0.4,2.3-2.4,4.1-5.8,4.1
		c-4.2,0-6.6-3.1-6.6-7.3s2.4-7,6.6-7c4,0,6,3,6.1,6.3L788,750.4L788,750.4z M777.8,748.5h7.9c-0.1-1.7-1.5-3.2-3.8-3.2
		C779.4,745.3,778.1,746.7,777.8,748.5z"/>
	<path class="st0" d="M803.1,747.3c1.6,0.8,2.7,2.5,2.7,4.5c0,3.1-2.1,5.4-6.5,5.4h-8.6v-19.3h8.4c4.1,0,6.2,2.2,6.2,4.9
		c0,1.7-0.7,3.2-2.1,3.9v0.6H803.1z M793.1,746.1h5.9c2.1,0,3.8-0.7,3.8-3.1c0-2.2-1.9-2.9-3.8-2.9h-5.9V746.1z M799.1,755
		c2.2,0,4.2-0.8,4.2-3.5c0-2.5-1.9-3.3-4.2-3.3h-6v6.8H799.1z"/>
	<path class="st0" d="M810.3,743.6v8.2c0,2.5,1.2,3.8,3.5,3.8c2.4,0,4-2.1,4-4.5v-7.4h2.3v13.6h-2.2v-1.5h-0.6
		c-0.8,1.1-2.3,1.8-4.1,1.8c-3.3,0-5.2-2.1-5.2-5.3v-8.6L810.3,743.6L810.3,743.6z"/>
	<path class="st0" d="M823.4,740.1v-2.5h2.4v2.5H823.4z M825.8,757.2h-2.3v-13.6h2.3V757.2z"/>
	<path class="st0" d="M831.4,737.6v19.6h-2.3v-19.6H831.4z"/>
	<path class="st0" d="M846.9,737.6v19.6h-2.2v-1.5h-0.6c-0.8,0.9-2.1,1.8-4.2,1.8c-3.8,0-6-3.1-6-7.2c0-4.1,2.2-7.2,6-7.2
		c2.2,0,3.4,0.8,4.2,1.8h0.6v-7.5h2.2V737.6z M844.6,750.4c0-2.7-1.2-5.2-4.3-5.2c-2.7,0-4.2,2.1-4.2,5.2c0,3,1.5,5.2,4.2,5.2
		C843.4,755.6,844.6,753.1,844.6,750.4z"/>
	<path class="st0" d="M862,750.4h-10.4c0.1,3.2,1.5,5.2,4.3,5.2c1.9,0,3.1-0.8,3.5-2.1h2.3c-0.4,2.3-2.4,4.1-5.8,4.1
		c-4.2,0-6.6-3.1-6.6-7.3s2.4-7,6.6-7c4,0,6,3,6.1,6.3L862,750.4L862,750.4z M851.8,748.5h7.9c-0.1-1.7-1.5-3.2-3.8-3.2
		C853.4,745.3,852.1,746.7,851.8,748.5z"/>
	<path class="st0" d="M872.2,745.8h-1.1c-2.7,0-4.3,1.6-4.3,4.6v6.8h-2.3v-13.6h2.2v1.6h0.6c0.7-0.8,2-1.6,3.9-1.6h1L872.2,745.8
		L872.2,745.8z"/>
	<path class="st0" d="M879.7,761h-2.2c-2.3-2.8-4.3-6.9-4.3-12.2s1.9-9.3,4.1-12.1h2.2c-2.2,2.9-4.2,6.7-4.2,12.1
		C875.3,754.2,877.4,758.1,879.7,761z"/>
	<path class="st0" d="M885.4,736.7h2.2c2.2,2.8,4.1,6.7,4.1,12.1c0,5.4-1.9,9.4-4.3,12.2h-2.2c2.2-2.9,4.3-6.8,4.3-12.2
		C889.5,743.4,887.5,739.7,885.4,736.7z"/>
	<path class="st0" d="M692.6,798.1c-0.5,2.7-2.6,4.5-5.7,4.5c-4.2,0-6.6-3.1-6.6-7.2c0-4.1,2.4-7.2,6.6-7.2c3.2,0,5.2,1.8,5.6,4.3
		h-2.3c-0.4-1.4-1.5-2.3-3.3-2.3c-3.1,0-4.3,2.4-4.3,5.1c0,2.7,1.3,5.2,4.3,5.2c1.9,0,3.1-0.9,3.4-2.5h2.3V798.1z"/>
	<path class="st0" d="M702.7,790.8h-1.1c-2.7,0-4.3,1.6-4.3,4.6v6.8H695v-13.6h2.2v1.6h0.6c0.7-0.8,2-1.6,3.9-1.6h1L702.7,790.8
		L702.7,790.8z"/>
	<path class="st0" d="M716.3,795.4H706c0.1,3.2,1.5,5.2,4.3,5.2c1.9,0,3.1-0.8,3.5-2.1h2.3c-0.4,2.3-2.4,4.1-5.8,4.1
		c-4.2,0-6.6-3.1-6.6-7.3s2.4-7,6.6-7c4,0,6,3,6.1,6.3L716.3,795.4L716.3,795.4z M706.1,793.5h7.9c-0.1-1.7-1.5-3.2-3.8-3.2
		C707.8,790.3,706.4,791.7,706.1,793.5z"/>
	<path class="st0" d="M727.4,800.8h-0.6c-0.8,1.1-2.3,1.8-4.2,1.8c-3.1,0-4.9-2.1-4.9-4.4c0-2.2,1.4-4.5,5.2-4.5h4.4v-0.5
		c0-1.6-0.9-2.8-3.3-2.8c-2,0-3.1,0.8-3.2,2h-2.3c0.2-2.5,2.3-4,5.4-4c3.4,0,5.6,1.6,5.6,4.7v9.3h-2.2L727.4,800.8L727.4,800.8z
		 M727.4,796.7v-1.2h-4.1c-2.2,0-3.3,1-3.3,2.6c0,1.5,1.1,2.5,3.2,2.5C725.4,800.6,727.4,798.9,727.4,796.7z"/>
	<path class="st0" d="M739.3,788.6v2h-3.4v7.5c0,1.4,0.6,2.1,2.4,2.1h1v2.1h-1.1c-2.9,0-4.7-0.9-4.7-3.8v-7.8h-2.3v-2h2.3v-4.1h2.3
		v4.1L739.3,788.6L739.3,788.6z"/>
	<path class="st0" d="M753.5,795.4h-10.4c0.1,3.2,1.5,5.2,4.3,5.2c1.9,0,3.1-0.8,3.5-2.1h2.3c-0.4,2.3-2.4,4.1-5.8,4.1
		c-4.2,0-6.6-3.1-6.6-7.3s2.4-7,6.6-7c4,0,6,3,6.1,6.3L753.5,795.4L753.5,795.4z M743.3,793.5h7.9c-0.1-1.7-1.5-3.2-3.8-3.2
		C744.9,790.3,743.6,791.7,743.3,793.5z"/>
	<path class="st0" d="M764.3,782.9c4.2,0,6.5,2.2,6.5,5.8s-2.3,5.8-6.5,5.8h-5.7v7.7h-2.4v-19.3H764.3z M763.9,792.3
		c3.3,0,4.5-1.4,4.5-3.6c0-2.2-1.2-3.6-4.5-3.6h-5.3v7.2L763.9,792.3L763.9,792.3z"/>
	<path class="st0" d="M780.9,790.8h-1.1c-2.7,0-4.3,1.6-4.3,4.6v6.8h-2.3v-13.6h2.2v1.6h0.6c0.7-0.8,2-1.6,3.9-1.6h1L780.9,790.8
		L780.9,790.8z"/>
	<path class="st0" d="M795.3,795.4c0,4-2.5,7.2-6.7,7.2c-4.3,0-6.7-3.1-6.7-7.2c0-4,2.4-7.2,6.7-7.2
		C792.9,788.3,795.3,791.4,795.3,795.4z M793,795.4c0-2.7-1.4-5.2-4.4-5.2s-4.4,2.5-4.4,5.2s1.4,5.2,4.4,5.2
		C791.6,800.6,793,798.1,793,795.4z"/>
	<path class="st0" d="M809.9,782.6v19.6h-2.2v-1.5h-0.6c-0.8,0.9-2.1,1.8-4.2,1.8c-3.8,0-6-3.1-6-7.2c0-4.1,2.2-7.2,6-7.2
		c2.2,0,3.4,0.8,4.2,1.8h0.6v-7.5h2.2V782.6z M807.7,795.4c0-2.7-1.2-5.2-4.3-5.2c-2.7,0-4.2,2.1-4.2,5.2c0,3,1.5,5.2,4.2,5.2
		C806.4,800.6,807.7,798.1,807.7,795.4z"/>
	<path class="st0" d="M815.3,788.6v8.2c0,2.5,1.2,3.8,3.5,3.8c2.4,0,4-2.1,4-4.5v-7.4h2.3v13.6h-2.2v-1.5h-0.6
		c-0.8,1.1-2.3,1.8-4.1,1.8c-3.3,0-5.2-2.1-5.2-5.3v-8.6L815.3,788.6L815.3,788.6z"/>
	<path class="st0" d="M839.9,798.1c-0.5,2.7-2.6,4.5-5.7,4.5c-4.2,0-6.6-3.1-6.6-7.2c0-4.1,2.4-7.2,6.6-7.2c3.2,0,5.2,1.8,5.6,4.3
		h-2.3c-0.4-1.4-1.5-2.3-3.3-2.3c-3.1,0-4.3,2.4-4.3,5.1c0,2.7,1.3,5.2,4.3,5.2c1.9,0,3.1-0.9,3.4-2.5h2.3V798.1z"/>
	<path class="st0" d="M848.8,788.6v2h-3.4v7.5c0,1.4,0.6,2.1,2.4,2.1h1v2.1h-1.1c-2.9,0-4.7-0.9-4.7-3.8v-7.8h-2.3v-2h2.3v-4.1h2.3
		v4.1L848.8,788.6L848.8,788.6z"/>
	<path class="st0" d="M857,806h-2.2c-2.3-2.8-4.3-6.9-4.3-12.2s1.9-9.3,4.1-12.1h2.2c-2.2,2.9-4.2,6.7-4.2,12.1
		C852.7,799.2,854.8,803.1,857,806z"/>
	<path class="st0" d="M862.7,781.7h2.2c2.2,2.8,4.1,6.7,4.1,12.1c0,5.4-1.9,9.4-4.3,12.2h-2.2c2.2-2.9,4.3-6.8,4.3-12.2
		C866.9,788.4,864.9,784.7,862.7,781.7z"/>
	<path class="st0" d="M871.3,791.7v-3.1h2.8v3.1H871.3z M871.3,802.2v-3.1h2.8v3.1H871.3z"/>
	<path class="st0" d="M890.3,792.3c1.6,0.8,2.7,2.5,2.7,4.5c0,3.1-2.1,5.4-6.5,5.4h-8.6v-19.3h8.4c4.1,0,6.2,2.2,6.2,4.9
		c0,1.7-0.7,3.2-2.1,3.9v0.6H890.3z M880.3,791.1h5.9c2.1,0,3.8-0.7,3.8-3.1c0-2.2-1.9-2.9-3.8-2.9h-5.9V791.1z M886.3,800
		c2.2,0,4.2-0.8,4.2-3.5c0-2.5-1.9-3.3-4.2-3.3h-6v6.8H886.3z"/>
	<path class="st0" d="M897.5,788.6v8.2c0,2.5,1.2,3.8,3.5,3.8c2.4,0,4-2.1,4-4.5v-7.4h2.3v13.6h-2.2v-1.5h-0.6
		c-0.8,1.1-2.3,1.8-4.1,1.8c-3.3,0-5.2-2.1-5.2-5.3v-8.6L897.5,788.6L897.5,788.6z"/>
	<path class="st0" d="M910.6,785.1v-2.5h2.4v2.5H910.6z M912.9,802.2h-2.3v-13.6h2.3V802.2z"/>
	<path class="st0" d="M918.6,782.6v19.6h-2.3v-19.6H918.6z"/>
	<path class="st0" d="M934.1,782.6v19.6h-2.2v-1.5h-0.6c-0.8,0.9-2.1,1.8-4.2,1.8c-3.8,0-6-3.1-6-7.2c0-4.1,2.2-7.2,6-7.2
		c2.2,0,3.4,0.8,4.2,1.8h0.6v-7.5h2.2V782.6z M931.8,795.4c0-2.7-1.2-5.2-4.3-5.2c-2.7,0-4.2,2.1-4.2,5.2c0,3,1.5,5.2,4.2,5.2
		C930.6,800.6,931.8,798.1,931.8,795.4z"/>
	<path class="st0" d="M949.2,795.4h-10.4c0.1,3.2,1.5,5.2,4.3,5.2c1.9,0,3-0.8,3.5-2.1h2.3c-0.4,2.3-2.4,4.1-5.8,4.1
		c-4.2,0-6.6-3.1-6.6-7.3s2.4-7,6.6-7c4,0,6,3,6.1,6.3L949.2,795.4L949.2,795.4z M938.9,793.5h7.9c-0.1-1.7-1.5-3.2-3.8-3.2
		C940.6,790.3,939.2,791.7,938.9,793.5z"/>
	<path class="st0" d="M959.4,790.8h-1.1c-2.7,0-4.3,1.6-4.3,4.6v6.8h-2.3v-13.6h2.2v1.6h0.6c0.7-0.8,2-1.6,3.9-1.6h1L959.4,790.8
		L959.4,790.8z"/>
	<path class="st0" d="M694.1,840.4c0,4-2.2,7.2-6,7.2c-2.2,0-3.5-0.9-4.2-1.8h-0.6v1.5h-2.2v-19.6h2.3v7.5h0.6c0.7-1,2-1.8,4.2-1.8
		C691.9,833.3,694.1,836.3,694.1,840.4z M691.8,840.4c0-3-1.5-5.2-4.2-5.2c-3,0-4.3,2.5-4.3,5.2s1.2,5.2,4.3,5.2
		C690.4,845.6,691.8,843.4,691.8,840.4z"/>
	<path class="st0" d="M698.7,833.6v8.2c0,2.5,1.2,3.8,3.5,3.8c2.4,0,4-2.1,4-4.5v-7.4h2.3v13.6h-2.2v-1.5h-0.6
		c-0.8,1.1-2.3,1.8-4.1,1.8c-3.3,0-5.2-2.1-5.2-5.3v-8.6L698.7,833.6L698.7,833.6z"/>
	<path class="st0" d="M711.8,830.1v-2.5h2.4v2.5H711.8z M714.1,847.2h-2.3v-13.6h2.3V847.2z"/>
	<path class="st0" d="M719.8,827.6v19.6h-2.3v-19.6H719.8z"/>
	<path class="st0" d="M735.2,827.6v19.6H733v-1.5h-0.6c-0.8,0.9-2.1,1.8-4.2,1.8c-3.8,0-6-3.1-6-7.2c0-4.1,2.2-7.2,6-7.2
		c2.2,0,3.4,0.8,4.2,1.8h0.6v-7.5h2.2V827.6z M733,840.4c0-2.7-1.2-5.2-4.3-5.2c-2.7,0-4.2,2.1-4.2,5.2c0,3,1.5,5.2,4.2,5.2
		C731.7,845.6,733,843.1,733,840.4z"/>
	<path class="st0" d="M746.9,827.9c4.2,0,6.5,2.2,6.5,5.8s-2.3,5.8-6.5,5.8h-5.7v7.7h-2.4v-19.3H746.9z M746.5,837.3
		c3.3,0,4.5-1.4,4.5-3.6c0-2.2-1.2-3.6-4.5-3.6h-5.3v7.2L746.5,837.3L746.5,837.3z"/>
	<path class="st0" d="M764.1,845.8h-0.6c-0.8,1.1-2.3,1.8-4.2,1.8c-3.1,0-4.9-2.1-4.9-4.4c0-2.2,1.4-4.5,5.2-4.5h4.4v-0.5
		c0-1.6-0.9-2.8-3.3-2.8c-2,0-3.1,0.8-3.2,2h-2.3c0.2-2.5,2.3-4,5.4-4c3.4,0,5.6,1.6,5.6,4.7v9.3H764L764.1,845.8L764.1,845.8z
		 M764,841.7v-1.2h-4.1c-2.2,0-3.3,1-3.3,2.6c0,1.5,1.1,2.5,3.2,2.5C762.1,845.6,764,843.9,764,841.7z"/>
	<path class="st0" d="M777.1,835.8H776c-2.7,0-4.3,1.6-4.3,4.6v6.8h-2.3v-13.6h2.2v1.6h0.6c0.7-0.8,2-1.6,3.9-1.6h1L777.1,835.8
		L777.1,835.8z"/>
	<path class="st0" d="M786.4,833.6v2H783v7.5c0,1.4,0.6,2.1,2.4,2.1h1v2.1h-1.1c-2.9,0-4.7-0.9-4.7-3.8v-7.8h-2.3v-2h2.3v-4.1h2.3
		v4.1L786.4,833.6L786.4,833.6z"/>
	<path class="st0" d="M788.4,845.1h4.5v-14.3h-0.5l-4,2.7V831l3.9-2.7h2.9v16.8h4.1v2.1h-11L788.4,845.1L788.4,845.1z"/>
	<path class="st0" d="M807.1,851h-2.2c-2.3-2.8-4.3-6.9-4.3-12.2s1.9-9.3,4.1-12.1h2.2c-2.2,2.9-4.2,6.7-4.2,12.1
		C802.8,844.2,804.9,848.1,807.1,851z"/>
	<path class="st0" d="M817.6,836.4c2.9,0.6,4.8,2.1,4.8,5.4c0,3-2.4,5.7-7.3,5.7c-4.5,0-7.4-2.4-7.7-5.7h2.5
		c0.4,2.6,2.8,3.5,5.4,3.5c2.7,0,4.7-1.2,4.7-3.5c0-2.1-1.4-2.9-3.3-3.3c-1-0.2-2.9-0.6-3.8-0.8c-2.8-0.6-4.7-2.1-4.7-4.9
		c0-3,2.4-5.3,6.8-5.3c4,0,6.6,2.1,7,5.2h-2.5c-0.5-1.9-1.8-3-4.6-3c-2.3,0-4.3,1.1-4.3,3.1c0,1.9,1.6,2.5,3.3,2.8
		C814.8,835.8,816.6,836.2,817.6,836.4z"/>
	<path class="st0" d="M831.7,833.6v2h-3.4v7.5c0,1.4,0.6,2.1,2.4,2.1h1v2.1h-1.1c-2.9,0-4.7-0.9-4.7-3.8v-7.8h-2.3v-2h2.3v-4.1h2.3
		v4.1L831.7,833.6L831.7,833.6z"/>
	<path class="st0" d="M842.1,835.8H841c-2.7,0-4.3,1.6-4.3,4.6v6.8h-2.3v-13.6h2.2v1.6h0.6c0.7-0.8,2-1.6,3.9-1.6h1L842.1,835.8
		L842.1,835.8z"/>
	<path class="st0" d="M844,830.1v-2.5h2.4v2.5H844z M846.3,847.2H844v-13.6h2.3V847.2z"/>
	<path class="st0" d="M859.5,847.2V839c0-2.5-1.2-3.8-3.5-3.8c-2.4,0-4,2.1-4,4.5v7.4h-2.3v-13.6h2.2v1.5h0.6
		c0.8-1.1,2.3-1.8,4.1-1.8c3.3,0,5.2,2.1,5.2,5.3v8.6L859.5,847.2L859.5,847.2z"/>
	<path class="st0" d="M877.1,833.6v12.9c0,3.8-2.4,6.3-6.3,6.3c-3.5,0-5.8-1.5-6.2-4.2h2.3c0.4,1.6,1.8,2.2,3.9,2.2
		c2.8,0,4.1-1.7,4.1-4.4v-1.1h-0.6c-0.7,0.9-2,1.8-4.1,1.8c-3.8,0-6-3-6-6.9c0-4,2.3-7,6-7c2.1,0,3.4,0.9,4.2,1.8h0.6v-1.5h2.1
		V833.6z M874.8,840.2c0-2.6-1.4-5-4.3-5c-2.7,0-4.2,2-4.2,5c0,2.9,1.5,4.9,4.2,4.9C873.4,845.2,874.8,842.8,874.8,840.2z"/>
	<path class="st0" d="M878.5,826.7h2.2c2.2,2.8,4.1,6.7,4.1,12.1c0,5.4-1.9,9.4-4.3,12.2h-2.2c2.2-2.9,4.3-6.8,4.3-12.2
		C882.6,833.4,880.6,829.7,878.5,826.7z"/>
	<path class="st0" d="M887,836.7v-3.1h2.8v3.1H887z M887,847.2v-3.1h2.8v3.1H887z"/>
	<path class="st0" d="M906.1,837.3c1.6,0.8,2.7,2.5,2.7,4.5c0,3.1-2.1,5.4-6.5,5.4h-8.6v-19.3h8.4c4.1,0,6.2,2.2,6.2,4.9
		c0,1.7-0.7,3.2-2.1,3.9v0.6H906.1z M896,836.1h5.9c2.1,0,3.8-0.7,3.8-3.1c0-2.2-1.9-2.9-3.8-2.9H896V836.1z M902.1,845
		c2.2,0,4.2-0.8,4.2-3.5c0-2.5-1.9-3.3-4.2-3.3h-6v6.8H902.1z"/>
	<path class="st0" d="M913.2,833.6v8.2c0,2.5,1.2,3.8,3.5,3.8c2.4,0,4-2.1,4-4.5v-7.4h2.3v13.6h-2.2v-1.5h-0.6
		c-0.8,1.1-2.3,1.8-4.1,1.8c-3.3,0-5.2-2.1-5.2-5.3v-8.6L913.2,833.6L913.2,833.6z"/>
	<path class="st0" d="M926.3,830.1v-2.5h2.4v2.5H926.3z M928.7,847.2h-2.3v-13.6h2.3V847.2z"/>
	<path class="st0" d="M934.4,827.6v19.6h-2.3v-19.6H934.4z"/>
	<path class="st0" d="M949.8,827.6v19.6h-2.2v-1.5H947c-0.8,0.9-2.1,1.8-4.2,1.8c-3.8,0-6-3.1-6-7.2c0-4.1,2.2-7.2,6-7.2
		c2.2,0,3.4,0.8,4.2,1.8h0.6v-7.5h2.2V827.6z M947.6,840.4c0-2.7-1.2-5.2-4.3-5.2c-2.7,0-4.2,2.1-4.2,5.2c0,3,1.5,5.2,4.2,5.2
		C946.3,845.6,947.6,843.1,947.6,840.4z"/>
	<path class="st0" d="M964.9,840.4h-10.4c0.1,3.2,1.5,5.2,4.3,5.2c1.9,0,3.1-0.8,3.5-2.1h2.3c-0.4,2.3-2.4,4.1-5.8,4.1
		c-4.2,0-6.6-3.1-6.6-7.3s2.4-7,6.6-7c4,0,6,3,6.1,6.3L964.9,840.4L964.9,840.4z M954.7,838.5h7.9c-0.1-1.7-1.5-3.2-3.8-3.2
		C956.3,835.3,955,836.7,954.7,838.5z"/>
	<path class="st0" d="M975.1,835.8H974c-2.7,0-4.3,1.6-4.3,4.6v6.8h-2.3v-13.6h2.2v1.6h0.6c0.7-0.8,2-1.6,3.9-1.6h1L975.1,835.8
		L975.1,835.8z"/>
	<path class="st0" d="M694.1,885.4c0,4-2.2,7.2-6,7.2c-2.2,0-3.5-0.9-4.2-1.8h-0.6v1.5h-2.2v-19.6h2.3v7.5h0.6c0.7-1,2-1.8,4.2-1.8
		C691.9,878.3,694.1,881.3,694.1,885.4z M691.8,885.4c0-3-1.5-5.2-4.2-5.2c-3,0-4.3,2.5-4.3,5.2s1.2,5.2,4.3,5.2
		C690.4,890.6,691.8,888.4,691.8,885.4z"/>
	<path class="st0" d="M698.7,878.6v8.2c0,2.5,1.2,3.8,3.5,3.8c2.4,0,4-2.1,4-4.5v-7.4h2.3v13.6h-2.2v-1.5h-0.6
		c-0.8,1.1-2.3,1.8-4.1,1.8c-3.3,0-5.2-2.1-5.2-5.3v-8.6L698.7,878.6L698.7,878.6z"/>
	<path class="st0" d="M711.8,875.1v-2.5h2.4v2.5H711.8z M714.1,892.2h-2.3v-13.6h2.3V892.2z"/>
	<path class="st0" d="M719.8,872.6v19.6h-2.3v-19.6H719.8z"/>
	<path class="st0" d="M735.2,872.6v19.6H733v-1.5h-0.6c-0.8,0.9-2.1,1.8-4.2,1.8c-3.8,0-6-3.1-6-7.2c0-4.1,2.2-7.2,6-7.2
		c2.2,0,3.4,0.8,4.2,1.8h0.6v-7.5h2.2V872.6z M733,885.4c0-2.7-1.2-5.2-4.3-5.2c-2.7,0-4.2,2.1-4.2,5.2c0,3,1.5,5.2,4.2,5.2
		C731.7,890.6,733,888.1,733,885.4z"/>
	<path class="st0" d="M746.9,872.9c4.2,0,6.5,2.2,6.5,5.8s-2.3,5.8-6.5,5.8h-5.7v7.7h-2.4v-19.3H746.9z M746.5,882.3
		c3.3,0,4.5-1.4,4.5-3.6c0-2.2-1.2-3.6-4.5-3.6h-5.3v7.2L746.5,882.3L746.5,882.3z"/>
	<path class="st0" d="M764.1,890.8h-0.6c-0.8,1.1-2.3,1.8-4.2,1.8c-3.1,0-4.9-2.1-4.9-4.4c0-2.2,1.4-4.5,5.2-4.5h4.4v-0.5
		c0-1.6-0.9-2.8-3.3-2.8c-2,0-3.1,0.8-3.2,2h-2.3c0.2-2.5,2.3-4,5.4-4c3.4,0,5.6,1.6,5.6,4.7v9.3H764L764.1,890.8L764.1,890.8z
		 M764,886.7v-1.2h-4.1c-2.2,0-3.3,1-3.3,2.6c0,1.5,1.1,2.5,3.2,2.5C762.1,890.6,764,888.9,764,886.7z"/>
	<path class="st0" d="M777.1,880.8H776c-2.7,0-4.3,1.6-4.3,4.6v6.8h-2.3v-13.6h2.2v1.6h0.6c0.7-0.8,2-1.6,3.9-1.6h1L777.1,880.8
		L777.1,880.8z"/>
	<path class="st0" d="M786.4,878.6v2H783v7.5c0,1.4,0.6,2.1,2.4,2.1h1v2.1h-1.1c-2.9,0-4.7-0.9-4.7-3.8v-7.8h-2.3v-2h2.3v-4.1h2.3
		v4.1L786.4,878.6L786.4,878.6z"/>
	<path class="st0" d="M788.3,878.5c0.2-3.8,2.9-5.6,6.3-5.6c3.5,0,6.1,2,6.1,5.8c0,2.6-1.9,5-4.2,6.8l-4.8,4v0.6h9.5v2.1h-13v-2.7
		l2.8-2.3c1.5-1.2,3.3-2.7,4.3-3.6c1.3-1.2,2.9-2.7,2.9-4.9c0-2.4-1.5-3.6-3.8-3.6c-2.1,0-3.6,1.1-3.9,3.5L788.3,878.5L788.3,878.5z
		"/>
	<path class="st0" d="M809.2,896H807c-2.3-2.8-4.3-6.9-4.3-12.2s1.9-9.3,4.1-12.1h2.2c-2.2,2.9-4.2,6.7-4.2,12.1
		C804.9,889.2,807,893.1,809.2,896z"/>
	<path class="st0" d="M819.7,881.4c2.9,0.6,4.8,2.1,4.8,5.4c0,3-2.4,5.7-7.3,5.7c-4.5,0-7.5-2.4-7.7-5.7h2.5
		c0.4,2.6,2.8,3.5,5.4,3.5c2.7,0,4.7-1.2,4.7-3.5c0-2.1-1.4-2.9-3.3-3.3c-1-0.2-2.9-0.6-3.8-0.8c-2.8-0.6-4.7-2.1-4.7-4.9
		c0-3,2.4-5.3,6.8-5.3c4,0,6.6,2.1,7,5.2h-2.5c-0.5-1.9-1.8-3-4.6-3c-2.3,0-4.3,1.1-4.3,3.1c0,1.9,1.6,2.5,3.3,2.8
		C816.9,880.8,818.7,881.2,819.7,881.4z"/>
	<path class="st0" d="M833.8,878.6v2h-3.4v7.5c0,1.4,0.6,2.1,2.4,2.1h1v2.1h-1.1c-2.9,0-4.7-0.9-4.7-3.8v-7.8h-2.3v-2h2.3v-4.1h2.3
		v4.1L833.8,878.6L833.8,878.6z"/>
	<path class="st0" d="M844.2,880.8h-1.1c-2.7,0-4.3,1.6-4.3,4.6v6.8h-2.3v-13.6h2.2v1.6h0.6c0.7-0.8,2-1.6,3.9-1.6h1L844.2,880.8
		L844.2,880.8z"/>
	<path class="st0" d="M846.1,875.1v-2.5h2.4v2.5H846.1z M848.4,892.2h-2.3v-13.6h2.3V892.2z"/>
	<path class="st0" d="M861.6,892.2V884c0-2.5-1.2-3.8-3.5-3.8c-2.4,0-4,2.1-4,4.5v7.4h-2.3v-13.6h2.2v1.5h0.6
		c0.8-1.1,2.3-1.8,4.1-1.8c3.3,0,5.2,2.1,5.2,5.3v8.6L861.6,892.2L861.6,892.2z"/>
	<path class="st0" d="M879.2,878.6v12.9c0,3.8-2.4,6.3-6.3,6.3c-3.5,0-5.7-1.5-6.2-4.2h2.3c0.4,1.6,1.8,2.2,3.9,2.2
		c2.8,0,4.1-1.7,4.1-4.4v-1.1h-0.6c-0.7,0.9-2,1.8-4.1,1.8c-3.8,0-6-3-6-6.9c0-4,2.3-7,6-7c2.1,0,3.4,0.9,4.2,1.8h0.6v-1.5h2.1
		V878.6z M876.9,885.2c0-2.6-1.4-5-4.3-5c-2.7,0-4.2,2-4.2,5c0,2.9,1.5,4.9,4.2,4.9C875.6,890.2,876.9,887.8,876.9,885.2z"/>
	<path class="st0" d="M880.6,871.7h2.2c2.2,2.8,4.1,6.7,4.1,12.1c0,5.4-1.9,9.4-4.3,12.2h-2.2c2.2-2.9,4.3-6.8,4.3-12.2
		C884.7,878.4,882.7,874.7,880.6,871.7z"/>
	<path class="st0" d="M889.1,881.7v-3.1h2.8v3.1H889.1z M889.1,892.2v-3.1h2.8v3.1H889.1z"/>
	<path class="st0" d="M909.2,882.3c1.6,0.8,2.7,2.5,2.7,4.5c0,3.1-2.1,5.4-6.5,5.4h-8.6v-19.3h8.4c4.1,0,6.2,2.2,6.2,4.9
		c0,1.7-0.7,3.2-2.1,3.9v0.6H909.2z M899.1,881.1h5.9c2.1,0,3.8-0.7,3.8-3.1c0-2.2-1.9-2.9-3.8-2.9h-5.9V881.1z M905.2,890
		c2.2,0,4.2-0.8,4.2-3.5c0-2.5-1.9-3.3-4.2-3.3h-6v6.8H905.2z"/>
	<path class="st0" d="M916.3,878.6v8.2c0,2.5,1.2,3.8,3.5,3.8c2.4,0,4-2.1,4-4.5v-7.4h2.3v13.6h-2.2v-1.5h-0.6
		c-0.8,1.1-2.3,1.8-4.1,1.8c-3.3,0-5.2-2.1-5.2-5.3v-8.6L916.3,878.6L916.3,878.6z"/>
	<path class="st0" d="M929.4,875.1v-2.5h2.4v2.5H929.4z M931.8,892.2h-2.3v-13.6h2.3V892.2z"/>
	<path class="st0" d="M937.5,872.6v19.6h-2.3v-19.6H937.5z"/>
	<path class="st0" d="M952.9,872.6v19.6h-2.2v-1.5h-0.6c-0.8,0.9-2.1,1.8-4.2,1.8c-3.8,0-6-3.1-6-7.2c0-4.1,2.2-7.2,6-7.2
		c2.2,0,3.4,0.8,4.2,1.8h0.6v-7.5h2.2V872.6z M950.7,885.4c0-2.7-1.2-5.2-4.3-5.2c-2.7,0-4.2,2.1-4.2,5.2c0,3,1.5,5.2,4.2,5.2
		C949.4,890.6,950.7,888.1,950.7,885.4z"/>
	<path class="st0" d="M968,885.4h-10.4c0.1,3.2,1.5,5.2,4.3,5.2c1.9,0,3.1-0.8,3.5-2.1h2.3c-0.4,2.3-2.4,4.1-5.8,4.1
		c-4.2,0-6.6-3.1-6.6-7.3s2.4-7,6.6-7c4,0,6,3,6.1,6.3L968,885.4L968,885.4z M957.8,883.5h7.9c-0.1-1.7-1.5-3.2-3.8-3.2
		C959.4,880.3,958.1,881.7,957.8,883.5z"/>
	<path class="st0" d="M978.2,880.8h-1.1c-2.7,0-4.3,1.6-4.3,4.6v6.8h-2.3v-13.6h2.2v1.6h0.6c0.7-0.8,2-1.6,3.9-1.6h1L978.2,880.8
		L978.2,880.8z"/>
	<path class="st0" d="M693.3,923.6v12.9c0,3.8-2.4,6.3-6.3,6.3c-3.5,0-5.7-1.5-6.2-4.2h2.3c0.4,1.6,1.8,2.2,3.9,2.2
		c2.8,0,4.1-1.7,4.1-4.4v-1.1h-0.6c-0.7,0.9-2,1.8-4.1,1.8c-3.8,0-6-3-6-6.9c0-4,2.3-7,6-7c2.1,0,3.4,0.9,4.2,1.8h0.6v-1.5h2.1
		V923.6z M691,930.2c0-2.6-1.4-5-4.3-5c-2.7,0-4.2,2-4.2,5c0,2.9,1.5,4.9,4.2,4.9C689.7,935.2,691,932.8,691,930.2z"/>
	<path class="st0" d="M708.4,930.4H698c0.1,3.2,1.5,5.2,4.3,5.2c1.9,0,3.1-0.8,3.5-2.1h2.3c-0.4,2.3-2.4,4.1-5.8,4.1
		c-4.2,0-6.6-3.1-6.6-7.3s2.4-7,6.6-7c4,0,6,3,6.1,6.3L708.4,930.4L708.4,930.4z M698.1,928.5h7.9c-0.1-1.7-1.5-3.2-3.8-3.2
		C699.8,925.3,698.4,926.7,698.1,928.5z"/>
	<path class="st0" d="M717.4,923.6v2H714v7.5c0,1.4,0.6,2.1,2.4,2.1h1v2.1h-1.1c-2.9,0-4.7-0.9-4.7-3.8v-7.8h-2.3v-2h2.3v-4.1h2.3
		v4.1L717.4,923.6L717.4,923.6z"/>
	<path class="st0" d="M728.8,917.9c4.1,0,6.3,2.1,6.3,5.6c0,2.4-1,4.1-2.9,4.9l3.1,8.7h-2.5l-2.9-8.2c-0.5,0.1-1.1,0.1-1.6,0.1h-5.6
		v8.1h-2.4v-19.3h8.5V917.9z M728.5,927c3.1,0,4.2-1.3,4.2-3.4c0-2.2-1.1-3.5-4.2-3.5h-5.7v6.9H728.5z"/>
	<path class="st0" d="M749.8,930.4h-10.4c0.1,3.2,1.5,5.2,4.3,5.2c1.9,0,3.1-0.8,3.5-2.1h2.3c-0.4,2.3-2.4,4.1-5.8,4.1
		c-4.2,0-6.6-3.1-6.6-7.3s2.4-7,6.6-7c4,0,6,3,6.1,6.3L749.8,930.4L749.8,930.4z M739.6,928.5h7.9c-0.1-1.7-1.5-3.2-3.8-3.2
		C741.3,925.3,739.9,926.7,739.6,928.5z"/>
	<path class="st0" d="M757.4,928.9l1.5,0.2c2.4,0.4,3.9,1.6,3.9,4.1c0,2.2-1.9,4.3-5.6,4.3c-3.9,0-5.7-1.7-6-4.3h2.3
		c0.2,1.5,1.6,2.3,3.6,2.3c2.1,0,3.4-0.7,3.4-2.2c0-1.2-0.8-1.8-2.5-2.1l-3.1-0.5c-1.9-0.4-3.3-1.4-3.3-3.4c0-2.3,1.7-4,5.4-4
		c3.2,0,5.1,1.5,5.4,3.9h-2.3c-0.2-1.3-1.5-1.9-3.2-1.9c-1.8,0-2.9,0.6-2.9,1.8c0,1.1,0.7,1.5,2.1,1.7L757.4,928.9z"/>
	<path class="st0" d="M767.1,923.6v8.2c0,2.5,1.2,3.8,3.5,3.8c2.4,0,4-2.1,4-4.5v-7.4h2.3v13.6h-2.2v-1.5h-0.6
		c-0.8,1.1-2.3,1.8-4.1,1.8c-3.3,0-5.2-2.1-5.2-5.3v-8.6L767.1,923.6L767.1,923.6z"/>
	<path class="st0" d="M782.5,917.6v19.6h-2.3v-19.6H782.5z"/>
	<path class="st0" d="M792.4,923.6v2H789v7.5c0,1.4,0.6,2.1,2.4,2.1h1v2.1h-1.1c-2.9,0-4.7-0.9-4.7-3.8v-7.8h-2.3v-2h2.3v-4.1h2.3
		v4.1L792.4,923.6L792.4,923.6z"/>
	<path class="st0" d="M800.6,941h-2.2c-2.3-2.8-4.3-6.9-4.3-12.2s1.9-9.3,4.1-12.1h2.2c-2.2,2.9-4.2,6.7-4.2,12.1
		C796.3,934.2,798.4,938.1,800.6,941z"/>
	<path class="st0" d="M806.3,916.7h2.2c2.2,2.8,4.1,6.7,4.1,12.1c0,5.4-1.9,9.4-4.3,12.2h-2.2c2.2-2.9,4.3-6.8,4.3-12.2
		C810.5,923.4,808.5,919.7,806.3,916.7z"/>
	<path class="st0" d="M814.9,926.7v-3.1h2.8v3.1H814.9z M814.9,937.2v-3.1h2.8v3.1H814.9z"/>
	<path class="st0" d="M830.6,917.9c4.2,0,6.5,2.2,6.5,5.8s-2.3,5.8-6.5,5.8h-5.7v7.7h-2.4v-19.3H830.6z M830.2,927.3
		c3.3,0,4.5-1.4,4.5-3.6c0-2.2-1.2-3.6-4.5-3.6h-5.3v7.2L830.2,927.3L830.2,927.3z"/>
	<path class="st0" d="M847.2,925.8H846c-2.7,0-4.3,1.6-4.3,4.6v6.8h-2.3v-13.6h2.2v1.6h0.6c0.7-0.8,2-1.6,3.9-1.6h1L847.2,925.8
		L847.2,925.8z"/>
	<path class="st0" d="M861.6,930.4c0,4-2.5,7.2-6.7,7.2c-4.3,0-6.7-3.1-6.7-7.2c0-4,2.4-7.2,6.7-7.2
		C859.1,923.3,861.6,926.4,861.6,930.4z M859.3,930.4c0-2.7-1.4-5.2-4.4-5.2s-4.4,2.5-4.4,5.2s1.4,5.2,4.4,5.2
		C857.9,935.6,859.3,933.1,859.3,930.4z"/>
	<path class="st0" d="M876.2,917.6v19.6H874v-1.5h-0.6c-0.8,0.9-2.1,1.8-4.2,1.8c-3.8,0-6-3.1-6-7.2c0-4.1,2.2-7.2,6-7.2
		c2.2,0,3.4,0.8,4.2,1.8h0.6v-7.5h2.2V917.6z M874,930.4c0-2.7-1.2-5.2-4.3-5.2c-2.7,0-4.2,2.1-4.2,5.2c0,3,1.5,5.2,4.2,5.2
		C872.7,935.6,874,933.1,874,930.4z"/>
	<path class="st0" d="M881.6,923.6v8.2c0,2.5,1.2,3.8,3.5,3.8c2.4,0,4-2.1,4-4.5v-7.4h2.3v13.6h-2.2v-1.5h-0.6
		c-0.8,1.1-2.3,1.8-4.1,1.8c-3.3,0-5.2-2.1-5.2-5.3v-8.6L881.6,923.6L881.6,923.6z"/>
	<path class="st0" d="M906.2,933.1c-0.5,2.7-2.6,4.5-5.7,4.5c-4.2,0-6.6-3.1-6.6-7.2c0-4.1,2.4-7.2,6.6-7.2c3.2,0,5.2,1.8,5.6,4.3
		h-2.3c-0.4-1.4-1.5-2.3-3.3-2.3c-3.1,0-4.3,2.4-4.3,5.1c0,2.7,1.3,5.2,4.3,5.2c1.9,0,3.1-0.9,3.4-2.5h2.3V933.1z"/>
	<path class="st0" d="M915.1,923.6v2h-3.4v7.5c0,1.4,0.6,2.1,2.4,2.1h1v2.1H914c-2.9,0-4.7-0.9-4.7-3.8v-7.8H907v-2h2.3v-4.1h2.3
		v4.1L915.1,923.6L915.1,923.6z"/>
</g>
<g>
	<path class="st0" d="M1301.3,681.6v1.5h0.6c0.8-0.9,2.1-1.8,4.2-1.8c3.8,0,6,3.1,6,7.2c0,4.1-2.2,7.2-6,7.2c-2.2,0-3.4-0.8-4.2-1.8
		h-0.6v6.9h-2.3v-19h2.3V681.6z M1301.4,688.4c0,2.7,1.2,5.2,4.3,5.2c2.7,0,4.2-2.1,4.2-5.2c0-3-1.5-5.2-4.2-5.2
		C1302.6,683.2,1301.4,685.7,1301.4,688.4z"/>
	<path class="st0" d="M1324.4,693.8h-0.6c-0.8,1.1-2.3,1.8-4.2,1.8c-3.1,0-4.9-2.1-4.9-4.4c0-2.2,1.4-4.5,5.2-4.5h4.4v-0.5
		c0-1.6-0.9-2.8-3.3-2.8c-2,0-3.1,0.8-3.2,2h-2.3c0.2-2.5,2.3-4,5.4-4c3.4,0,5.6,1.6,5.6,4.7v9.3h-2.2L1324.4,693.8L1324.4,693.8z
		 M1324.3,689.7v-1.2h-4.1c-2.2,0-3.3,1-3.3,2.6c0,1.5,1.1,2.5,3.2,2.5C1322.4,693.6,1324.3,691.9,1324.3,689.7z"/>
	<path class="st0" d="M1338.5,683.8h-1.1c-2.7,0-4.3,1.6-4.3,4.6v6.8h-2.3v-13.6h2.2v1.6h0.6c0.7-0.8,2-1.6,3.9-1.6h1L1338.5,683.8
		L1338.5,683.8z"/>
	<path class="st0" d="M1349,681.6v2h-3.4v7.5c0,1.4,0.6,2.1,2.4,2.1h1v2.1h-1.1c-2.9,0-4.7-0.9-4.7-3.8v-7.8h-2.3v-2h2.3v-4.1h2.3
		v4.1L1349,681.6L1349,681.6z"/>
	<path class="st0" d="M1352.1,693.1h4.5v-14.3h-0.5l-4,2.7V679l3.9-2.7h2.9v16.8h4.1v2.1h-11L1352.1,693.1L1352.1,693.1z"/>
	<path class="st0" d="M1366.2,684.7v-3.1h2.8v3.1H1366.2z M1366.2,695.2v-3.1h2.8v3.1H1366.2z"/>
	<path class="st0" d="M1384.1,684.4c2.9,0.6,4.8,2.1,4.8,5.4c0,3-2.4,5.7-7.3,5.7c-4.5,0-7.5-2.4-7.7-5.7h2.5
		c0.4,2.6,2.8,3.5,5.4,3.5c2.7,0,4.7-1.2,4.7-3.5c0-2.1-1.4-2.9-3.3-3.3c-1-0.2-2.9-0.6-3.8-0.8c-2.8-0.6-4.7-2.1-4.7-4.9
		c0-3,2.4-5.3,6.8-5.3c4,0,6.6,2.1,7,5.2h-2.5c-0.5-1.9-1.8-3-4.6-3c-2.3,0-4.3,1.1-4.3,3.1c0,1.9,1.6,2.5,3.3,2.8
		C1381.3,683.8,1383.1,684.2,1384.1,684.4z"/>
	<path class="st0" d="M1399.4,681.6v2h-3.4v7.5c0,1.4,0.6,2.1,2.4,2.1h1v2.1h-1.1c-2.9,0-4.7-0.9-4.7-3.8v-7.8h-2.3v-2h2.3v-4.1h2.3
		v4.1L1399.4,681.6L1399.4,681.6z"/>
	<path class="st0" d="M1410.9,683.8h-1.1c-2.7,0-4.3,1.6-4.3,4.6v6.8h-2.3v-13.6h2.2v1.6h0.6c0.7-0.8,2-1.6,3.9-1.6h1L1410.9,683.8
		L1410.9,683.8z"/>
	<path class="st0" d="M1413.9,678.1v-2.5h2.4v2.5H1413.9z M1416.3,695.2h-2.3v-13.6h2.3V695.2z"/>
	<path class="st0" d="M1430.6,695.2V687c0-2.5-1.2-3.8-3.5-3.8c-2.4,0-4,2.1-4,4.5v7.4h-2.3v-13.6h2.2v1.5h0.6
		c0.8-1.1,2.3-1.8,4.1-1.8c3.3,0,5.2,2.1,5.2,5.3v8.6L1430.6,695.2L1430.6,695.2z"/>
	<path class="st0" d="M1449.2,681.6v12.9c0,3.8-2.4,6.3-6.3,6.3c-3.5,0-5.7-1.5-6.2-4.2h2.3c0.4,1.6,1.8,2.2,3.9,2.2
		c2.8,0,4.1-1.7,4.1-4.4v-1.1h-0.6c-0.7,0.9-2,1.8-4.1,1.8c-3.8,0-6-3-6-6.9c0-4,2.3-7,6-7c2.1,0,3.4,0.9,4.2,1.8h0.6v-1.5h2.1
		V681.6z M1447,688.2c0-2.6-1.4-5-4.3-5c-2.7,0-4.2,2-4.2,5c0,2.9,1.5,4.9,4.2,4.9C1445.6,693.2,1447,690.8,1447,688.2z"/>
	<path class="st0" d="M1301.3,726.6v1.5h0.6c0.8-0.9,2.1-1.8,4.2-1.8c3.8,0,6,3.1,6,7.2c0,4.1-2.2,7.2-6,7.2c-2.2,0-3.4-0.8-4.2-1.8
		h-0.6v6.9h-2.3v-19h2.3V726.6z M1301.4,733.4c0,2.7,1.2,5.2,4.3,5.2c2.7,0,4.2-2.1,4.2-5.2c0-3-1.5-5.2-4.2-5.2
		C1302.6,728.2,1301.4,730.7,1301.4,733.4z"/>
	<path class="st0" d="M1324.4,738.8h-0.6c-0.8,1.1-2.3,1.8-4.2,1.8c-3.1,0-4.9-2.1-4.9-4.4c0-2.2,1.4-4.5,5.2-4.5h4.4v-0.5
		c0-1.6-0.9-2.8-3.3-2.8c-2,0-3.1,0.8-3.2,2h-2.3c0.2-2.5,2.3-4,5.4-4c3.4,0,5.6,1.6,5.6,4.7v9.3h-2.2L1324.4,738.8L1324.4,738.8z
		 M1324.3,734.7v-1.2h-4.1c-2.2,0-3.3,1-3.3,2.6c0,1.5,1.1,2.5,3.2,2.5C1322.4,738.6,1324.3,736.9,1324.3,734.7z"/>
	<path class="st0" d="M1338.5,728.8h-1.1c-2.7,0-4.3,1.6-4.3,4.6v6.8h-2.3v-13.6h2.2v1.6h0.6c0.7-0.8,2-1.6,3.9-1.6h1L1338.5,728.8
		L1338.5,728.8z"/>
	<path class="st0" d="M1349,726.6v2h-3.4v7.5c0,1.4,0.6,2.1,2.4,2.1h1v2.1h-1.1c-2.9,0-4.7-0.9-4.7-3.8v-7.8h-2.3v-2h2.3v-4.1h2.3
		v4.1L1349,726.6L1349,726.6z"/>
	<path class="st0" d="M1352,726.5c0.2-3.8,2.9-5.6,6.3-5.6c3.5,0,6.1,2,6.1,5.8c0,2.6-1.9,5-4.2,6.8l-4.8,4v0.6h9.5v2.1h-13v-2.7
		l2.8-2.3c1.5-1.2,3.3-2.7,4.3-3.6c1.3-1.2,2.9-2.7,2.9-4.9c0-2.4-1.5-3.6-3.8-3.6c-2.1,0-3.6,1.1-3.9,3.5L1352,726.5L1352,726.5z"
		/>
	<path class="st0" d="M1368.3,729.7v-3.1h2.8v3.1H1368.3z M1368.3,740.2v-3.1h2.8v3.1H1368.3z"/>
	<path class="st0" d="M1386.2,729.4c2.9,0.6,4.8,2.1,4.8,5.4c0,3-2.4,5.7-7.3,5.7c-4.5,0-7.5-2.4-7.7-5.7h2.5
		c0.4,2.6,2.8,3.5,5.4,3.5c2.7,0,4.7-1.2,4.7-3.5c0-2.1-1.4-2.9-3.3-3.3c-1-0.2-2.9-0.6-3.8-0.8c-2.8-0.6-4.7-2.1-4.7-4.9
		c0-3,2.4-5.3,6.8-5.3c4,0,6.6,2.1,7,5.2h-2.5c-0.5-1.9-1.8-3-4.6-3c-2.3,0-4.3,1.1-4.3,3.1c0,1.9,1.6,2.5,3.3,2.8
		C1383.4,728.8,1385.2,729.2,1386.2,729.4z"/>
	<path class="st0" d="M1401.5,726.6v2h-3.4v7.5c0,1.4,0.6,2.1,2.4,2.1h1v2.1h-1.1c-2.9,0-4.7-0.9-4.7-3.8v-7.8h-2.3v-2h2.3v-4.1h2.3
		v4.1L1401.5,726.6L1401.5,726.6z"/>
	<path class="st0" d="M1413,728.8h-1.1c-2.7,0-4.3,1.6-4.3,4.6v6.8h-2.3v-13.6h2.2v1.6h0.6c0.7-0.8,2-1.6,3.9-1.6h1L1413,728.8
		L1413,728.8z"/>
	<path class="st0" d="M1416,723.1v-2.5h2.4v2.5H1416z M1418.4,740.2h-2.3v-13.6h2.3V740.2z"/>
	<path class="st0" d="M1432.7,740.2V732c0-2.5-1.2-3.8-3.5-3.8c-2.4,0-4,2.1-4,4.5v7.4h-2.3v-13.6h2.2v1.5h0.6
		c0.8-1.1,2.3-1.8,4.1-1.8c3.3,0,5.2,2.1,5.2,5.3v8.6L1432.7,740.2L1432.7,740.2z"/>
	<path class="st0" d="M1451.4,726.6v12.9c0,3.8-2.4,6.3-6.3,6.3c-3.5,0-5.8-1.5-6.2-4.2h2.3c0.4,1.6,1.8,2.2,3.9,2.2
		c2.8,0,4.1-1.7,4.1-4.4v-1.1h-0.6c-0.7,0.9-2,1.8-4.1,1.8c-3.8,0-6-3-6-6.9c0-4,2.3-7,6-7c2.1,0,3.4,0.9,4.2,1.8h0.6v-1.5h2.1
		V726.6z M1449.1,733.2c0-2.6-1.4-5-4.3-5c-2.7,0-4.2,2-4.2,5c0,2.9,1.5,4.9,4.2,4.9C1447.7,738.2,1449.1,735.8,1449.1,733.2z"/>
</g>
<g>
	<path class="st0" d="M1307.5,776.9c4.2,0,6.5,2.2,6.5,5.7c0,3.6-2.3,5.8-6.5,5.8h-5.7v7.7h-2.4v-19.3L1307.5,776.9L1307.5,776.9z
		 M1307.1,786.3c3.3,0,4.5-1.4,4.5-3.6s-1.2-3.6-4.5-3.6h-5.3v7.2L1307.1,786.3L1307.1,786.3z"/>
	<path class="st0" d="M1324,784.8h-1.1c-2.7,0-4.3,1.6-4.3,4.6v6.8h-2.3v-13.6h2.2v1.6h0.6c0.7-0.8,2-1.6,3.9-1.6h1L1324,784.8
		L1324,784.8z"/>
	<path class="st0" d="M1338.3,789.4c0,4-2.5,7.2-6.7,7.2c-4.3,0-6.7-3.1-6.7-7.2c0-4,2.4-7.2,6.7-7.2S1338.3,785.4,1338.3,789.4z
		 M1336,789.4c0-2.7-1.4-5.2-4.4-5.2s-4.4,2.5-4.4,5.2s1.4,5.2,4.4,5.2C1334.6,794.6,1336,792.1,1336,789.4z"/>
	<path class="st0" d="M1352.9,776.6v19.6h-2.2v-1.5h-0.6c-0.8,0.9-2.1,1.8-4.2,1.8c-3.8,0-6-3.1-6-7.2c0-4.1,2.2-7.2,6-7.2
		c2.2,0,3.4,0.8,4.2,1.8h0.6v-7.5h2.2V776.6z M1350.6,789.4c0-2.7-1.2-5.2-4.3-5.2c-2.7,0-4.2,2.1-4.2,5.2s1.5,5.2,4.2,5.2
		C1349.4,794.6,1350.6,792.1,1350.6,789.4z"/>
	<path class="st0" d="M1358.2,782.6v8.2c0,2.5,1.2,3.8,3.5,3.8c2.4,0,4-2.1,4-4.5v-7.4h2.3v13.6h-2.2v-1.5h-0.6
		c-0.8,1.1-2.3,1.8-4.1,1.8c-3.3,0-5.2-2.1-5.2-5.3v-8.6L1358.2,782.6L1358.2,782.6z"/>
	<path class="st0" d="M1382.7,792.1c-0.5,2.7-2.6,4.5-5.7,4.5c-4.2,0-6.6-3.1-6.6-7.2c0-4.1,2.4-7.2,6.6-7.2c3.2,0,5.2,1.8,5.6,4.3
		h-2.3c-0.4-1.4-1.5-2.3-3.3-2.3c-3.1,0-4.3,2.4-4.3,5.1c0,2.7,1.3,5.2,4.3,5.2c1.9,0,3.1-0.9,3.4-2.5h2.3V792.1z"/>
	<path class="st0" d="M1391.5,782.6v2h-3.4v7.5c0,1.4,0.6,2.1,2.4,2.1h1v2.1h-1.1c-2.9,0-4.7-0.9-4.7-3.8v-7.8h-2.3v-2h2.3v-4.1h2.3
		v4.1L1391.5,782.6L1391.5,782.6z"/>
	<path class="st0" d="M1399.7,800h-2.2c-2.3-2.8-4.3-6.9-4.3-12.2s1.9-9.3,4.1-12.1h2.2c-2.2,2.9-4.2,6.7-4.2,12.1
		C1395.3,793.2,1397.4,797.1,1399.7,800z"/>
	<path class="st0" d="M1405.2,775.7h2.2c2.2,2.8,4.1,6.7,4.1,12.1c0,5.4-1.9,9.4-4.3,12.2h-2.2c2.2-2.9,4.3-6.8,4.3-12.2
		C1409.3,782.4,1407.4,778.7,1405.2,775.7z"/>
	<path class="st0" d="M1304.2,832.9l1.5,0.2c2.4,0.4,3.9,1.6,3.9,4.1c0,2.2-1.9,4.3-5.6,4.3c-3.9,0-5.8-1.7-6-4.3h2.3
		c0.2,1.5,1.6,2.3,3.6,2.3c2.1,0,3.4-0.7,3.4-2.2c0-1.2-0.8-1.8-2.5-2.1l-3-0.5c-1.9-0.4-3.3-1.4-3.3-3.4c0-2.3,1.7-4,5.4-4
		c3.2,0,5.1,1.5,5.4,3.9h-2.3c-0.2-1.3-1.5-1.9-3.2-1.9c-1.8,0-2.9,0.6-2.9,1.8c0,1.1,0.7,1.5,2.1,1.7L1304.2,832.9z"/>
	<path class="st0" d="M1323.6,834.4h-10.4c0.1,3.2,1.5,5.2,4.3,5.2c1.9,0,3-0.8,3.5-2.1h2.3c-0.4,2.3-2.4,4.1-5.8,4.1
		c-4.2,0-6.6-3.1-6.6-7.3s2.4-7,6.6-7c4,0,6,3,6.1,6.3V834.4z M1313.3,832.5h7.9c-0.1-1.7-1.5-3.2-3.8-3.2
		C1315,829.2,1313.6,830.7,1313.3,832.5z"/>
	<path class="st0" d="M1332.5,827.6v2h-3.4v7.5c0,1.4,0.6,2.1,2.4,2.1h1v2.1h-1.1c-2.9,0-4.7-0.9-4.7-3.8v-7.8h-2.3v-2h2.3v-4.1h2.3
		v4.1L1332.5,827.6L1332.5,827.6z"/>
	<path class="st0" d="M1343.5,821.9c4.2,0,6.5,2.2,6.5,5.7c0,3.6-2.3,5.8-6.5,5.8h-5.7v7.7h-2.4v-19.3L1343.5,821.9L1343.5,821.9z
		 M1343.1,831.3c3.3,0,4.5-1.4,4.5-3.6s-1.2-3.6-4.5-3.6h-5.3v7.2L1343.1,831.3L1343.1,831.3z"/>
	<path class="st0" d="M1360.5,839.8h-0.6c-0.8,1.1-2.3,1.8-4.2,1.8c-3.1,0-4.9-2.1-4.9-4.4c0-2.2,1.4-4.5,5.2-4.5h4.4v-0.5
		c0-1.6-0.9-2.8-3.3-2.8c-2,0-3.1,0.8-3.2,2h-2.3c0.2-2.5,2.3-4,5.4-4c3.4,0,5.6,1.6,5.6,4.7v9.3h-2.2L1360.5,839.8L1360.5,839.8z
		 M1360.5,835.7v-1.2h-4.1c-2.2,0-3.3,1-3.3,2.6c0,1.5,1.1,2.5,3.2,2.5C1358.5,839.6,1360.5,837.9,1360.5,835.7z"/>
	<path class="st0" d="M1373.5,829.8h-1.1c-2.7,0-4.3,1.6-4.3,4.6v6.8h-2.3v-13.6h2.2v1.6h0.6c0.7-0.8,2-1.6,3.9-1.6h1L1373.5,829.8
		L1373.5,829.8z"/>
	<path class="st0" d="M1382.7,827.6v2h-3.4v7.5c0,1.4,0.6,2.1,2.4,2.1h1v2.1h-1.1c-2.9,0-4.7-0.9-4.7-3.8v-7.8h-2.3v-2h2.3v-4.1h2.3
		v4.1L1382.7,827.6L1382.7,827.6z"/>
	<path class="st0" d="M1384.6,839.1h4.5v-14.3h-0.5l-4,2.7V825l3.9-2.7h2.9v16.8h4.1v2.1h-11L1384.6,839.1L1384.6,839.1z"/>
	<path class="st0" d="M1403.2,845h-2.2c-2.3-2.8-4.3-6.9-4.3-12.2s1.9-9.3,4.1-12.1h2.2c-2.2,2.9-4.2,6.7-4.2,12.1
		C1398.9,838.2,1401,842.1,1403.2,845z"/>
	<path class="st0" d="M1413.7,830.4c2.9,0.6,4.8,2.1,4.8,5.4c0,3-2.4,5.7-7.3,5.7c-4.5,0-7.5-2.4-7.7-5.7h2.5
		c0.4,2.6,2.8,3.5,5.4,3.5c2.7,0,4.7-1.2,4.7-3.5c0-2.1-1.4-2.9-3.3-3.3c-1-0.2-2.9-0.6-3.8-0.8c-2.8-0.6-4.7-2.1-4.7-4.9
		c0-3,2.4-5.3,6.8-5.3c4,0,6.6,2.1,7,5.2h-2.5c-0.5-1.9-1.8-3-4.6-3c-2.3,0-4.3,1.1-4.3,3.1c0,1.9,1.6,2.5,3.3,2.8
		C1410.9,829.8,1412.7,830.2,1413.7,830.4z"/>
	<path class="st0" d="M1427.7,827.6v2h-3.4v7.5c0,1.4,0.6,2.1,2.4,2.1h1v2.1h-1.1c-2.9,0-4.7-0.9-4.7-3.8v-7.8h-2.3v-2h2.3v-4.1h2.3
		v4.1L1427.7,827.6L1427.7,827.6z"/>
	<path class="st0" d="M1438,829.8h-1.1c-2.7,0-4.3,1.6-4.3,4.6v6.8h-2.3v-13.6h2.2v1.6h0.6c0.7-0.8,2-1.6,3.9-1.6h1L1438,829.8
		L1438,829.8z"/>
	<path class="st0" d="M1439.8,824.1v-2.5h2.4v2.5H1439.8z M1442.2,841.2h-2.3v-13.6h2.3V841.2z"/>
	<path class="st0" d="M1455.2,841.2V833c0-2.5-1.2-3.8-3.5-3.8c-2.4,0-4,2.1-4,4.5v7.4h-2.3v-13.6h2.2v1.5h0.6
		c0.8-1.1,2.3-1.8,4.1-1.8c3.3,0,5.2,2.1,5.2,5.3v8.6L1455.2,841.2L1455.2,841.2z"/>
	<path class="st0" d="M1472.7,827.6v12.9c0,3.8-2.4,6.3-6.3,6.3c-3.5,0-5.8-1.5-6.2-4.2h2.3c0.4,1.6,1.8,2.2,3.9,2.2
		c2.8,0,4.1-1.7,4.1-4.4v-1.1h-0.6c-0.7,0.9-2,1.8-4.1,1.8c-3.8,0-6-3-6-6.9c0-4,2.3-7,6-7c2.1,0,3.4,0.9,4.2,1.8h0.6v-1.5h2.1
		V827.6z M1470.5,834.2c0-2.6-1.4-5-4.3-5c-2.7,0-4.2,2-4.2,5c0,2.9,1.5,4.9,4.2,4.9C1469.1,839.2,1470.5,836.8,1470.5,834.2z"/>
	<path class="st0" d="M1474,820.7h2.2c2.2,2.8,4.1,6.7,4.1,12.1c0,5.4-1.9,9.4-4.3,12.2h-2.2c2.2-2.9,4.3-6.8,4.3-12.2
		C1478.2,827.4,1476.2,823.7,1474,820.7z"/>
	<path class="st0" d="M1482.5,830.7v-3.1h2.8v3.1H1482.5z M1482.5,841.2v-3.1h2.8v3.1H1482.5z"/>
	<path class="st0" d="M1489.1,827.6h2.4l3.8,11.4h1.1l3.7-11.4h2.4l-4.6,13.6h-4.3L1489.1,827.6z"/>
	<path class="st0" d="M1516.4,834.4c0,4-2.5,7.2-6.7,7.2c-4.3,0-6.7-3.1-6.7-7.2c0-4,2.4-7.2,6.7-7.2
		C1513.9,827.2,1516.4,830.4,1516.4,834.4z M1514.1,834.4c0-2.7-1.4-5.2-4.4-5.2s-4.4,2.5-4.4,5.2s1.4,5.2,4.4,5.2
		C1512.7,839.6,1514.1,837.1,1514.1,834.4z"/>
	<path class="st0" d="M1518.7,824.1v-2.5h2.4v2.5H1518.7z M1521.1,841.2h-2.3v-13.6h2.3V841.2z"/>
	<path class="st0" d="M1536.6,821.6v19.6h-2.2v-1.5h-0.6c-0.8,0.9-2.1,1.8-4.2,1.8c-3.8,0-6-3.1-6-7.2c0-4.1,2.2-7.2,6-7.2
		c2.2,0,3.4,0.8,4.2,1.8h0.6v-7.5h2.2V821.6z M1534.3,834.4c0-2.7-1.2-5.2-4.3-5.2c-2.7,0-4.2,2.1-4.2,5.2s1.5,5.2,4.2,5.2
		C1533.1,839.6,1534.3,837.1,1534.3,834.4z"/>
	<path class="st0" d="M1304.2,877.9l1.5,0.2c2.4,0.4,3.9,1.6,3.9,4.1c0,2.2-1.9,4.3-5.6,4.3c-3.9,0-5.8-1.7-6-4.3h2.3
		c0.2,1.5,1.6,2.3,3.6,2.3c2.1,0,3.4-0.7,3.4-2.2c0-1.2-0.8-1.8-2.5-2.1l-3-0.5c-1.9-0.4-3.3-1.4-3.3-3.4c0-2.3,1.7-4,5.4-4
		c3.2,0,5.1,1.5,5.4,3.9h-2.3c-0.2-1.3-1.5-1.9-3.2-1.9c-1.8,0-2.9,0.6-2.9,1.8c0,1.1,0.7,1.5,2.1,1.7L1304.2,877.9z"/>
	<path class="st0" d="M1323.6,879.4h-10.4c0.1,3.2,1.5,5.2,4.3,5.2c1.9,0,3-0.8,3.5-2.1h2.3c-0.4,2.3-2.4,4.1-5.8,4.1
		c-4.2,0-6.6-3.1-6.6-7.3s2.4-7,6.6-7c4,0,6,3,6.1,6.3V879.4z M1313.3,877.5h7.9c-0.1-1.7-1.5-3.2-3.8-3.2
		C1315,874.2,1313.6,875.7,1313.3,877.5z"/>
	<path class="st0" d="M1332.5,872.6v2h-3.4v7.5c0,1.4,0.6,2.1,2.4,2.1h1v2.1h-1.1c-2.9,0-4.7-0.9-4.7-3.8v-7.8h-2.3v-2h2.3v-4.1h2.3
		v4.1L1332.5,872.6L1332.5,872.6z"/>
	<path class="st0" d="M1343.5,866.9c4.2,0,6.5,2.2,6.5,5.7c0,3.6-2.3,5.8-6.5,5.8h-5.7v7.7h-2.4v-19.3L1343.5,866.9L1343.5,866.9z
		 M1343.1,876.3c3.3,0,4.5-1.4,4.5-3.6s-1.2-3.6-4.5-3.6h-5.3v7.2L1343.1,876.3L1343.1,876.3z"/>
	<path class="st0" d="M1360.5,884.8h-0.6c-0.8,1.1-2.3,1.8-4.2,1.8c-3.1,0-4.9-2.1-4.9-4.4c0-2.2,1.4-4.5,5.2-4.5h4.4v-0.5
		c0-1.6-0.9-2.8-3.3-2.8c-2,0-3.1,0.8-3.2,2h-2.3c0.2-2.5,2.3-4,5.4-4c3.4,0,5.6,1.6,5.6,4.7v9.3h-2.2L1360.5,884.8L1360.5,884.8z
		 M1360.5,880.7v-1.2h-4.1c-2.2,0-3.3,1-3.3,2.6c0,1.5,1.1,2.5,3.2,2.5C1358.5,884.6,1360.5,882.9,1360.5,880.7z"/>
	<path class="st0" d="M1373.5,874.8h-1.1c-2.7,0-4.3,1.6-4.3,4.6v6.8h-2.3v-13.6h2.2v1.6h0.6c0.7-0.8,2-1.6,3.9-1.6h1L1373.5,874.8
		L1373.5,874.8z"/>
	<path class="st0" d="M1382.7,872.6v2h-3.4v7.5c0,1.4,0.6,2.1,2.4,2.1h1v2.1h-1.1c-2.9,0-4.7-0.9-4.7-3.8v-7.8h-2.3v-2h2.3v-4.1h2.3
		v4.1L1382.7,872.6L1382.7,872.6z"/>
	<path class="st0" d="M1384.5,872.5c0.2-3.8,2.9-5.6,6.3-5.6c3.5,0,6.1,2,6.1,5.7c0,2.6-1.9,5-4.2,6.8l-4.8,4v0.6h9.5v2.1h-13v-2.7
		l2.8-2.3c1.5-1.2,3.3-2.7,4.3-3.6c1.3-1.2,2.9-2.7,2.9-4.9c0-2.4-1.5-3.6-3.8-3.6c-2.1,0-3.6,1.1-3.9,3.5H1384.5z"/>
	<path class="st0" d="M1405.4,890h-2.2c-2.3-2.8-4.3-6.9-4.3-12.2s1.9-9.3,4.1-12.1h2.2c-2.2,2.9-4.2,6.7-4.2,12.1
		C1401,883.2,1403.1,887.1,1405.4,890z"/>
	<path class="st0" d="M1415.8,875.4c2.9,0.6,4.8,2.1,4.8,5.4c0,3-2.4,5.7-7.3,5.7c-4.5,0-7.5-2.4-7.7-5.7h2.5
		c0.4,2.6,2.8,3.5,5.4,3.5c2.7,0,4.7-1.2,4.7-3.5c0-2.1-1.4-2.9-3.3-3.3c-1-0.2-2.9-0.6-3.8-0.8c-2.8-0.6-4.7-2.1-4.7-4.9
		c0-3,2.4-5.3,6.8-5.3c4,0,6.6,2.1,7,5.2h-2.5c-0.5-1.9-1.8-3-4.6-3c-2.3,0-4.3,1.1-4.3,3.1c0,1.9,1.6,2.5,3.3,2.8
		C1413,874.8,1414.8,875.2,1415.8,875.4z"/>
	<path class="st0" d="M1429.8,872.6v2h-3.4v7.5c0,1.4,0.6,2.1,2.4,2.1h1v2.1h-1.1c-2.9,0-4.7-0.9-4.7-3.8v-7.8h-2.3v-2h2.3v-4.1h2.3
		v4.1L1429.8,872.6L1429.8,872.6z"/>
	<path class="st0" d="M1440.1,874.8h-1.1c-2.7,0-4.3,1.6-4.3,4.6v6.8h-2.3v-13.6h2.2v1.6h0.6c0.7-0.8,2-1.6,3.9-1.6h1L1440.1,874.8
		L1440.1,874.8z"/>
	<path class="st0" d="M1441.9,869.1v-2.5h2.4v2.5H1441.9z M1444.3,886.2h-2.3v-13.6h2.3V886.2z"/>
	<path class="st0" d="M1457.4,886.2V878c0-2.5-1.2-3.8-3.5-3.8c-2.4,0-4,2.1-4,4.5v7.4h-2.3v-13.6h2.2v1.5h0.6
		c0.8-1.1,2.3-1.8,4.1-1.8c3.3,0,5.2,2.1,5.2,5.3v8.6L1457.4,886.2L1457.4,886.2z"/>
	<path class="st0" d="M1474.8,872.6v12.9c0,3.8-2.4,6.3-6.3,6.3c-3.5,0-5.8-1.5-6.2-4.2h2.3c0.4,1.6,1.8,2.2,3.9,2.2
		c2.8,0,4.1-1.7,4.1-4.4v-1.1h-0.6c-0.7,0.9-2,1.8-4.1,1.8c-3.8,0-6-3-6-6.9c0-4,2.3-7,6-7c2.1,0,3.4,0.9,4.2,1.8h0.6v-1.5h2.1
		V872.6z M1472.6,879.2c0-2.6-1.4-5-4.3-5c-2.7,0-4.2,2-4.2,5c0,2.9,1.5,4.9,4.2,4.9C1471.2,884.2,1472.6,881.8,1472.6,879.2z"/>
	<path class="st0" d="M1476.1,865.7h2.2c2.2,2.8,4.1,6.7,4.1,12.1c0,5.4-1.9,9.4-4.3,12.2h-2.2c2.2-2.9,4.3-6.8,4.3-12.2
		C1480.3,872.4,1478.3,868.7,1476.1,865.7z"/>
	<path class="st0" d="M1484.6,875.7v-3.1h2.8v3.1H1484.6z M1484.6,886.2v-3.1h2.8v3.1H1484.6z"/>
	<path class="st0" d="M1491.2,872.6h2.4l3.8,11.4h1.1l3.7-11.4h2.4l-4.6,13.6h-4.3L1491.2,872.6z"/>
	<path class="st0" d="M1518.5,879.4c0,4-2.5,7.2-6.7,7.2c-4.3,0-6.7-3.1-6.7-7.2c0-4,2.4-7.2,6.7-7.2
		C1516,872.2,1518.5,875.4,1518.5,879.4z M1516.2,879.4c0-2.7-1.4-5.2-4.4-5.2s-4.4,2.5-4.4,5.2s1.4,5.2,4.4,5.2
		C1514.8,884.6,1516.2,882.1,1516.2,879.4z"/>
	<path class="st0" d="M1520.9,869.1v-2.5h2.4v2.5H1520.9z M1523.2,886.2h-2.3v-13.6h2.3V886.2z"/>
	<path class="st0" d="M1538.7,866.6v19.6h-2.2v-1.5h-0.6c-0.8,0.9-2.1,1.8-4.2,1.8c-3.8,0-6-3.1-6-7.2c0-4.1,2.2-7.2,6-7.2
		c2.2,0,3.4,0.8,4.2,1.8h0.6v-7.5h2.2V866.6z M1536.4,879.4c0-2.7-1.2-5.2-4.3-5.2c-2.7,0-4.2,2.1-4.2,5.2s1.5,5.2,4.2,5.2
		C1535.2,884.6,1536.4,882.1,1536.4,879.4z"/>
	<path class="st0" d="M1311.3,917.6v12.9c0,3.8-2.4,6.3-6.3,6.3c-3.5,0-5.8-1.5-6.2-4.2h2.3c0.4,1.6,1.8,2.2,3.9,2.2
		c2.8,0,4.1-1.7,4.1-4.4v-1.1h-0.6c-0.7,0.9-2,1.8-4.1,1.8c-3.8,0-6-3-6-6.9c0-4,2.3-7,6-7c2.1,0,3.4,0.9,4.2,1.8h0.6v-1.5h2.1
		V917.6z M1309,924.2c0-2.6-1.4-5-4.3-5c-2.7,0-4.2,2-4.2,5c0,2.9,1.5,4.9,4.2,4.9C1307.7,929.2,1309,926.8,1309,924.2z"/>
	<path class="st0" d="M1326.3,924.4h-10.4c0.1,3.2,1.5,5.2,4.3,5.2c1.9,0,3.1-0.8,3.5-2.1h2.3c-0.4,2.3-2.4,4.1-5.8,4.1
		c-4.2,0-6.6-3.1-6.6-7.3s2.4-7,6.6-7c4,0,6,3,6.1,6.3V924.4z M1316.1,922.5h7.9c-0.1-1.7-1.5-3.2-3.8-3.2
		C1317.7,919.2,1316.4,920.7,1316.1,922.5z"/>
	<path class="st0" d="M1335.2,917.6v2h-3.4v7.5c0,1.4,0.6,2.1,2.4,2.1h1v2.1h-1.1c-2.9,0-4.7-0.9-4.7-3.8v-7.8h-2.3v-2h2.3v-4.1h2.3
		v4.1L1335.2,917.6L1335.2,917.6z"/>
	<path class="st0" d="M1346.2,911.9c4.2,0,6.5,2.2,6.5,5.7c0,3.6-2.3,5.8-6.5,5.8h-5.7v7.7h-2.4v-19.3L1346.2,911.9L1346.2,911.9z
		 M1345.8,921.3c3.3,0,4.5-1.4,4.5-3.6s-1.2-3.6-4.5-3.6h-5.3v7.2L1345.8,921.3L1345.8,921.3z"/>
	<path class="st0" d="M1363.3,929.8h-0.6c-0.8,1.1-2.3,1.8-4.2,1.8c-3.1,0-4.9-2.1-4.9-4.4c0-2.2,1.4-4.5,5.2-4.5h4.4v-0.5
		c0-1.6-0.9-2.8-3.3-2.8c-2,0-3,0.8-3.2,2h-2.3c0.2-2.5,2.3-4,5.4-4c3.4,0,5.6,1.6,5.6,4.7v9.3h-2.2L1363.3,929.8L1363.3,929.8z
		 M1363.2,925.7v-1.2h-4.1c-2.2,0-3.3,1-3.3,2.6c0,1.5,1.1,2.5,3.2,2.5C1361.3,929.6,1363.2,927.9,1363.2,925.7z"/>
	<path class="st0" d="M1376.2,919.8h-1.1c-2.7,0-4.3,1.6-4.3,4.6v6.8h-2.3v-13.6h2.2v1.6h0.6c0.7-0.8,2-1.6,3.9-1.6h1L1376.2,919.8
		L1376.2,919.8z"/>
	<path class="st0" d="M1385.4,917.6v2h-3.4v7.5c0,1.4,0.6,2.1,2.4,2.1h1v2.1h-1.1c-2.9,0-4.7-0.9-4.7-3.8v-7.8h-2.3v-2h2.3v-4.1h2.3
		v4.1L1385.4,917.6L1385.4,917.6z"/>
	<path class="st0" d="M1387.4,929.1h4.5v-14.3h-0.5l-4,2.7V915l3.9-2.7h2.9v16.8h4.1v2.1h-11L1387.4,929.1L1387.4,929.1z"/>
	<path class="st0" d="M1406,935h-2.2c-2.3-2.8-4.3-6.9-4.3-12.2s1.9-9.3,4.1-12.1h2.2c-2.2,2.9-4.2,6.7-4.2,12.1
		C1401.6,928.2,1403.8,932.1,1406,935z"/>
	<path class="st0" d="M1411.5,910.7h2.2c2.2,2.8,4.1,6.7,4.1,12.1c0,5.4-1.9,9.4-4.3,12.2h-2.2c2.2-2.9,4.3-6.8,4.3-12.2
		C1415.7,917.4,1413.7,913.7,1411.5,910.7z"/>
	<path class="st0" d="M1420,920.7v-3.1h2.8v3.1H1420z M1420,931.2v-3.1h2.8v3.1H1420z"/>
	<path class="st0" d="M1435.2,920.4c2.9,0.6,4.8,2.1,4.8,5.4c0,3-2.4,5.7-7.3,5.7c-4.5,0-7.4-2.4-7.7-5.7h2.5
		c0.4,2.6,2.8,3.5,5.4,3.5c2.7,0,4.7-1.2,4.7-3.5c0-2.1-1.4-2.9-3.3-3.3c-1-0.2-2.9-0.6-3.8-0.8c-2.8-0.6-4.7-2.1-4.7-4.9
		c0-3,2.4-5.3,6.8-5.3c4,0,6.6,2.1,7,5.2h-2.5c-0.5-1.9-1.8-3-4.6-3c-2.3,0-4.3,1.1-4.3,3.1c0,1.9,1.6,2.5,3.3,2.8
		C1432.4,919.8,1434.2,920.2,1435.2,920.4z"/>
	<path class="st0" d="M1449.2,917.6v2h-3.4v7.5c0,1.4,0.6,2.1,2.4,2.1h1v2.1h-1.1c-2.9,0-4.7-0.9-4.7-3.8v-7.8h-2.3v-2h2.3v-4.1h2.3
		v4.1L1449.2,917.6L1449.2,917.6z"/>
	<path class="st0" d="M1459.5,919.8h-1.1c-2.7,0-4.3,1.6-4.3,4.6v6.8h-2.3v-13.6h2.2v1.6h0.6c0.7-0.8,2-1.6,3.9-1.6h1L1459.5,919.8
		L1459.5,919.8z"/>
	<path class="st0" d="M1461.3,914.1v-2.5h2.4v2.5H1461.3z M1463.6,931.2h-2.3v-13.6h2.3V931.2z"/>
	<path class="st0" d="M1476.7,931.2V923c0-2.5-1.2-3.8-3.5-3.8c-2.4,0-4,2.1-4,4.5v7.4h-2.3v-13.6h2.2v1.5h0.6
		c0.8-1.1,2.3-1.8,4.1-1.8c3.3,0,5.2,2.1,5.2,5.3v8.6L1476.7,931.2L1476.7,931.2z"/>
	<path class="st0" d="M1494.2,917.6v12.9c0,3.8-2.4,6.3-6.3,6.3c-3.5,0-5.8-1.5-6.2-4.2h2.3c0.4,1.6,1.8,2.2,3.9,2.2
		c2.8,0,4.1-1.7,4.1-4.4v-1.1h-0.6c-0.7,0.9-2,1.8-4.1,1.8c-3.8,0-6-3-6-6.9c0-4,2.3-7,6-7c2.1,0,3.4,0.9,4.2,1.8h0.6v-1.5h2.1
		V917.6z M1492,924.2c0-2.6-1.4-5-4.3-5c-2.7,0-4.2,2-4.2,5c0,2.9,1.5,4.9,4.2,4.9C1490.6,929.2,1492,926.8,1492,924.2z"/>
	<path class="st0" d="M1311.3,962.6v12.9c0,3.8-2.4,6.3-6.3,6.3c-3.5,0-5.8-1.5-6.2-4.2h2.3c0.4,1.6,1.8,2.2,3.9,2.2
		c2.8,0,4.1-1.7,4.1-4.4v-1.1h-0.6c-0.7,0.9-2,1.8-4.1,1.8c-3.8,0-6-3-6-6.9c0-4,2.3-7,6-7c2.1,0,3.4,0.9,4.2,1.8h0.6v-1.5h2.1
		V962.6z M1309,969.2c0-2.6-1.4-5-4.3-5c-2.7,0-4.2,2-4.2,5c0,2.9,1.5,4.9,4.2,4.9C1307.7,974.2,1309,971.8,1309,969.2z"/>
	<path class="st0" d="M1326.3,969.4h-10.4c0.1,3.2,1.5,5.2,4.3,5.2c1.9,0,3.1-0.8,3.5-2.1h2.3c-0.4,2.3-2.4,4.1-5.8,4.1
		c-4.2,0-6.6-3.1-6.6-7.3s2.4-7,6.6-7c4,0,6,3,6.1,6.3V969.4z M1316.1,967.5h7.9c-0.1-1.7-1.5-3.2-3.8-3.2
		C1317.7,964.2,1316.4,965.7,1316.1,967.5z"/>
	<path class="st0" d="M1335.2,962.6v2h-3.4v7.5c0,1.4,0.6,2.1,2.4,2.1h1v2.1h-1.1c-2.9,0-4.7-0.9-4.7-3.8v-7.8h-2.3v-2h2.3v-4.1h2.3
		v4.1L1335.2,962.6L1335.2,962.6z"/>
	<path class="st0" d="M1346.2,956.9c4.2,0,6.5,2.2,6.5,5.7c0,3.6-2.3,5.8-6.5,5.8h-5.7v7.7h-2.4v-19.3L1346.2,956.9L1346.2,956.9z
		 M1345.8,966.3c3.3,0,4.5-1.4,4.5-3.6s-1.2-3.6-4.5-3.6h-5.3v7.2L1345.8,966.3L1345.8,966.3z"/>
	<path class="st0" d="M1363.3,974.8h-0.6c-0.8,1.1-2.3,1.8-4.2,1.8c-3.1,0-4.9-2.1-4.9-4.4c0-2.2,1.4-4.5,5.2-4.5h4.4v-0.5
		c0-1.6-0.9-2.8-3.3-2.8c-2,0-3,0.8-3.2,2h-2.3c0.2-2.5,2.3-4,5.4-4c3.4,0,5.6,1.6,5.6,4.7v9.3h-2.2L1363.3,974.8L1363.3,974.8z
		 M1363.2,970.7v-1.2h-4.1c-2.2,0-3.3,1-3.3,2.6c0,1.5,1.1,2.5,3.2,2.5C1361.3,974.6,1363.2,972.9,1363.2,970.7z"/>
	<path class="st0" d="M1376.2,964.8h-1.1c-2.7,0-4.3,1.6-4.3,4.6v6.8h-2.3v-13.6h2.2v1.6h0.6c0.7-0.8,2-1.6,3.9-1.6h1L1376.2,964.8
		L1376.2,964.8z"/>
	<path class="st0" d="M1385.4,962.6v2h-3.4v7.5c0,1.4,0.6,2.1,2.4,2.1h1v2.1h-1.1c-2.9,0-4.7-0.9-4.7-3.8v-7.8h-2.3v-2h2.3v-4.1h2.3
		v4.1L1385.4,962.6L1385.4,962.6z"/>
	<path class="st0" d="M1387.2,962.5c0.2-3.8,2.9-5.6,6.3-5.6c3.5,0,6.1,2,6.1,5.7c0,2.6-1.9,5-4.2,6.8l-4.8,4v0.6h9.5v2.1h-13v-2.7
		l2.8-2.3c1.5-1.2,3.3-2.7,4.3-3.6c1.3-1.2,2.9-2.7,2.9-4.9c0-2.4-1.5-3.6-3.8-3.6c-2.1,0-3.6,1.1-3.9,3.5H1387.2z"/>
	<path class="st0" d="M1408.1,980h-2.2c-2.3-2.8-4.3-6.9-4.3-12.2s1.9-9.3,4.1-12.1h2.2c-2.2,2.9-4.2,6.7-4.2,12.1
		C1403.7,973.2,1405.9,977.1,1408.1,980z"/>
	<path class="st0" d="M1413.6,955.7h2.2c2.2,2.8,4.1,6.7,4.1,12.1c0,5.4-1.9,9.4-4.3,12.2h-2.2c2.2-2.9,4.3-6.8,4.3-12.2
		C1417.8,962.4,1415.8,958.7,1413.6,955.7z"/>
	<path class="st0" d="M1422.1,965.7v-3.1h2.8v3.1H1422.1z M1422.1,976.2v-3.1h2.8v3.1H1422.1z"/>
	<path class="st0" d="M1437.3,965.4c2.9,0.6,4.8,2.1,4.8,5.4c0,3-2.4,5.7-7.3,5.7c-4.5,0-7.4-2.4-7.7-5.7h2.5
		c0.4,2.6,2.8,3.5,5.4,3.5c2.7,0,4.7-1.2,4.7-3.5c0-2.1-1.4-2.9-3.3-3.3c-1-0.2-2.9-0.6-3.8-0.8c-2.8-0.6-4.7-2.1-4.7-4.9
		c0-3,2.4-5.3,6.8-5.3c4,0,6.6,2.1,7,5.2h-2.5c-0.5-1.9-1.8-3-4.6-3c-2.3,0-4.3,1.1-4.3,3.1c0,1.9,1.6,2.5,3.3,2.8
		C1434.5,964.8,1436.3,965.2,1437.3,965.4z"/>
	<path class="st0" d="M1451.3,962.6v2h-3.4v7.5c0,1.4,0.6,2.1,2.4,2.1h1v2.1h-1.1c-2.9,0-4.7-0.9-4.7-3.8v-7.8h-2.3v-2h2.3v-4.1h2.3
		v4.1L1451.3,962.6L1451.3,962.6z"/>
	<path class="st0" d="M1461.6,964.8h-1.1c-2.7,0-4.3,1.6-4.3,4.6v6.8h-2.3v-13.6h2.2v1.6h0.6c0.7-0.8,2-1.6,3.9-1.6h1L1461.6,964.8
		L1461.6,964.8z"/>
	<path class="st0" d="M1463.4,959.1v-2.5h2.4v2.5H1463.4z M1465.7,976.2h-2.3v-13.6h2.3V976.2z"/>
	<path class="st0" d="M1478.8,976.2V968c0-2.5-1.2-3.8-3.5-3.8c-2.4,0-4,2.1-4,4.5v7.4h-2.3v-13.6h2.2v1.5h0.6
		c0.8-1.1,2.3-1.8,4.1-1.8c3.3,0,5.2,2.1,5.2,5.3v8.6L1478.8,976.2L1478.8,976.2z"/>
	<path class="st0" d="M1496.3,962.6v12.9c0,3.8-2.4,6.3-6.3,6.3c-3.5,0-5.7-1.5-6.2-4.2h2.3c0.4,1.6,1.8,2.2,3.9,2.2
		c2.8,0,4.1-1.7,4.1-4.4v-1.1h-0.6c-0.7,0.9-2,1.8-4.1,1.8c-3.8,0-6-3-6-6.9c0-4,2.3-7,6-7c2.1,0,3.4,0.9,4.2,1.8h0.6v-1.5h2.1
		V962.6z M1494.1,969.2c0-2.6-1.4-5-4.3-5c-2.7,0-4.2,2-4.2,5c0,2.9,1.5,4.9,4.2,4.9C1492.7,974.2,1494.1,971.8,1494.1,969.2z"/>
</g>
<g>
	<path class="st0" d="M89.9,295.8c5.9,0,8.9,3.8,8.9,9.6c0,5.8-3,9.6-8.9,9.6h-7.2v-19.3L89.9,295.8L89.9,295.8z M89.9,312.9
		c4.7,0,6.5-3.4,6.5-7.4s-1.8-7.4-6.5-7.4h-4.8v14.8H89.9z"/>
	<path class="st0" d="M101.5,298v-2.5h2.4v2.5H101.5z M103.8,315.1h-2.3v-13.6h2.3V315.1z"/>
	<path class="st0" d="M115.2,303.6H114c-2.7,0-4.3,1.6-4.3,4.6v6.8h-2.3v-13.6h2.2v1.6h0.6c0.7-0.8,2-1.6,3.9-1.6h1v2.2H115.2z"/>
	<path class="st0" d="M129,308.3h-10.4c0.1,3.2,1.5,5.2,4.3,5.2c1.9,0,3.1-0.8,3.5-2.1h2.3c-0.4,2.3-2.4,4.1-5.8,4.1
		c-4.2,0-6.6-3.1-6.6-7.3c0-4.2,2.4-7,6.6-7c4,0,6,3,6.1,6.3V308.3z M118.8,306.3h7.9c-0.1-1.7-1.5-3.2-3.8-3.2
		C120.4,303.1,119,304.6,118.8,306.3z"/>
	<path class="st0" d="M143.1,311c-0.5,2.7-2.6,4.5-5.7,4.5c-4.2,0-6.6-3.1-6.6-7.2s2.4-7.2,6.6-7.2c3.2,0,5.2,1.8,5.6,4.3h-2.3
		c-0.4-1.4-1.5-2.3-3.3-2.3c-3.1,0-4.3,2.4-4.3,5.1s1.3,5.2,4.3,5.2c1.9,0,3.1-0.9,3.4-2.5h2.3V311z"/>
	<path class="st0" d="M152.1,301.5v2h-3.4v7.5c0,1.4,0.6,2.1,2.4,2.1h1v2.1H151c-2.9,0-4.7-0.9-4.7-3.8v-7.8H144v-2h2.3v-4.1h2.3
		v4.1h3.5V301.5z"/>
	<path class="st0" d="M167.3,308.3c0,4-2.5,7.2-6.7,7.2c-4.3,0-6.7-3.1-6.7-7.2s2.4-7.2,6.7-7.2
		C164.8,301.1,167.3,304.3,167.3,308.3z M165,308.3c0-2.7-1.4-5.2-4.4-5.2s-4.4,2.5-4.4,5.2s1.4,5.2,4.4,5.2
		C163.6,313.4,165,311,165,308.3z"/>
	<path class="st0" d="M177.7,303.6h-1.1c-2.7,0-4.3,1.6-4.3,4.6v6.8H170v-13.6h2.2v1.6h0.6c0.7-0.8,2-1.6,3.9-1.6h1L177.7,303.6
		L177.7,303.6z"/>
	<path class="st0" d="M185.3,318.9h-2.2c-2.3-2.8-4.3-6.9-4.3-12.2c0-5.3,1.9-9.3,4.1-12.1h2.2c-2.2,2.9-4.2,6.7-4.2,12.1
		C180.9,312.1,183.1,316,185.3,318.9z"/>
	<path class="st0" d="M199.3,305.2c1.6,0.8,2.7,2.5,2.7,4.5c0,3.1-2.1,5.4-6.5,5.4h-8.6v-19.3h8.4c4.1,0,6.2,2.2,6.2,4.9
		c0,1.7-0.7,3.2-2.1,3.9L199.3,305.2L199.3,305.2z M189.3,304h5.9c2.1,0,3.8-0.7,3.8-3.1c0-2.2-1.9-2.9-3.8-2.9h-5.9V304z
		 M195.3,312.9c2.2,0,4.2-0.8,4.2-3.5c0-2.5-1.9-3.3-4.2-3.3h-6v6.8H195.3z"/>
	<path class="st0" d="M206.7,301.5v8.2c0,2.5,1.2,3.8,3.5,3.8c2.4,0,4-2.1,4-4.5v-7.4h2.3v13.6h-2.2v-1.5h-0.6
		c-0.8,1.1-2.3,1.8-4.1,1.8c-3.3,0-5.2-2.1-5.2-5.3v-8.6h2.3V301.5z"/>
	<path class="st0" d="M219.9,298v-2.5h2.4v2.5H219.9z M222.3,315.1H220v-13.6h2.3V315.1z"/>
	<path class="st0" d="M228.1,295.5v19.6h-2.3v-19.6H228.1z"/>
	<path class="st0" d="M243.8,295.5v19.6h-2.2v-1.5H241c-0.8,0.9-2.1,1.8-4.2,1.8c-3.8,0-6-3.1-6-7.2s2.2-7.2,6-7.2
		c2.2,0,3.4,0.8,4.2,1.8h0.6v-7.5h2.2V295.5z M241.5,308.3c0-2.7-1.2-5.2-4.3-5.2c-2.7,0-4.2,2.1-4.2,5.2c0,3,1.5,5.2,4.2,5.2
		C240.2,313.4,241.5,311,241.5,308.3z"/>
	<path class="st0" d="M259,308.3h-10.4c0.1,3.2,1.5,5.2,4.3,5.2c1.9,0,3.1-0.8,3.5-2.1h2.3c-0.4,2.3-2.4,4.1-5.8,4.1
		c-4.2,0-6.6-3.1-6.6-7.3c0-4.2,2.4-7,6.6-7c4,0,6,3,6.1,6.3V308.3z M248.8,306.3h7.9c-0.1-1.7-1.5-3.2-3.8-3.2
		C250.4,303.1,249.1,304.6,248.8,306.3z"/>
	<path class="st0" d="M269.4,303.6h-1.1c-2.7,0-4.3,1.6-4.3,4.6v6.8h-2.3v-13.6h2.2v1.6h0.6c0.7-0.8,2-1.6,3.9-1.6h1L269.4,303.6
		L269.4,303.6z"/>
	<path class="st0" d="M269.5,294.6h2.2c2.2,2.8,4.1,6.7,4.1,12.1s-1.9,9.4-4.3,12.2h-2.2c2.2-2.9,4.3-6.8,4.3-12.2
		C273.7,301.3,271.7,297.5,269.5,294.6z"/>
</g>
<g>
	<path class="st0" d="M93.9,356.3c-0.5,2.7-2.6,4.5-5.7,4.5c-4.2,0-6.6-3.1-6.6-7.2s2.4-7.2,6.6-7.2c3.2,0,5.2,1.8,5.6,4.3h-2.3
		c-0.4-1.4-1.5-2.3-3.3-2.3c-3.1,0-4.3,2.4-4.3,5.1s1.3,5.2,4.3,5.2c1.9,0,3.1-0.9,3.4-2.5h2.3V356.3z"/>
	<path class="st0" d="M108.9,353.6c0,4-2.5,7.2-6.7,7.2c-4.3,0-6.7-3.1-6.7-7.2s2.4-7.2,6.7-7.2S108.9,349.5,108.9,353.6z
		 M106.6,353.6c0-2.7-1.4-5.2-4.4-5.2s-4.4,2.5-4.4,5.2s1.4,5.2,4.4,5.2C105.2,358.7,106.6,356.2,106.6,353.6z"/>
	<path class="st0" d="M121.3,360.4v-8.2c0-2.5-1.2-3.8-3.5-3.8c-2.4,0-4,2.1-4,4.5v7.4h-2.3v-13.6h2.2v1.5h0.6
		c0.8-1.1,2.3-1.8,4.1-1.8c3.3,0,5.2,2.1,5.2,5.3v8.6h-2.3V360.4z"/>
	<path class="st0" d="M132,352.1l1.5,0.2c2.4,0.4,3.9,1.6,3.9,4.1c0,2.2-1.9,4.3-5.6,4.3c-3.9,0-5.7-1.7-6-4.3h2.3
		c0.2,1.5,1.6,2.3,3.6,2.3c2.1,0,3.4-0.7,3.4-2.2c0-1.2-0.8-1.8-2.5-2.1l-3.1-0.5c-1.9-0.4-3.3-1.4-3.3-3.4c0-2.3,1.7-4,5.4-4
		c3.2,0,5.1,1.5,5.4,3.9h-2.3c-0.2-1.3-1.5-1.9-3.2-1.9c-1.8,0-2.9,0.6-2.9,1.8c0,1.1,0.7,1.5,2.1,1.7L132,352.1z"/>
	<path class="st0" d="M146.4,346.8v2H143v7.5c0,1.4,0.6,2.1,2.4,2.1h1v2.1h-1.1c-2.9,0-4.7-0.9-4.7-3.8v-7.8h-2.3v-2h2.3v-4.1h2.3
		v4.1h3.5V346.8z"/>
	<path class="st0" d="M157,348.9h-1.1c-2.7,0-4.3,1.6-4.3,4.6v6.8h-2.3v-13.6h2.2v1.6h0.6c0.7-0.8,2-1.6,3.9-1.6h1L157,348.9
		L157,348.9z"/>
	<path class="st0" d="M161.1,346.8v8.2c0,2.5,1.2,3.8,3.5,3.8c2.4,0,4-2.1,4-4.5v-7.4h2.3v13.6h-2.2V359h-0.6
		c-0.8,1.1-2.3,1.8-4.1,1.8c-3.3,0-5.2-2.1-5.2-5.3v-8.6h2.3V346.8z"/>
	<path class="st0" d="M185.8,356.3c-0.5,2.7-2.6,4.5-5.7,4.5c-4.2,0-6.6-3.1-6.6-7.2s2.4-7.2,6.6-7.2c3.2,0,5.2,1.8,5.6,4.3h-2.3
		c-0.4-1.4-1.5-2.3-3.3-2.3c-3.1,0-4.3,2.4-4.3,5.1s1.3,5.2,4.3,5.2c1.9,0,3.1-0.9,3.4-2.5h2.3V356.3z"/>
	<path class="st0" d="M194.9,346.8v2h-3.4v7.5c0,1.4,0.6,2.1,2.4,2.1h1v2.1h-1.1c-2.9,0-4.7-0.9-4.7-3.8v-7.8h-2.3v-2h2.3v-4.1h2.3
		v4.1h3.5V346.8z"/>
	<path class="st0" d="M203.3,364.2H201c-2.3-2.8-4.3-6.9-4.3-12.2c0-5.3,1.9-9.3,4.1-12.1h2.2c-2.2,2.9-4.2,6.7-4.2,12.1
		C198.9,357.4,201,361.2,203.3,364.2z"/>
	<path class="st0" d="M209.3,339.9h2.2c2.2,2.8,4.1,6.7,4.1,12.1s-1.9,9.4-4.3,12.2h-2.2c2.2-2.9,4.3-6.8,4.3-12.2
		C213.4,346.6,211.4,342.8,209.3,339.9z"/>
	<path class="st0" d="M218,349.9v-3.1h2.8v3.1H218z M218,360.4v-3.1h2.8v3.1H218z"/>
	<path class="st0" d="M225,346.8h2.4l3.8,11.4h1.1l3.7-11.4h2.4l-4.6,13.6h-4.3L225,346.8z"/>
	<path class="st0" d="M252.6,353.6c0,4-2.5,7.2-6.7,7.2c-4.3,0-6.7-3.1-6.7-7.2s2.4-7.2,6.7-7.2
		C250.1,346.4,252.6,349.5,252.6,353.6z M250.3,353.6c0-2.7-1.4-5.2-4.4-5.2s-4.4,2.5-4.4,5.2s1.4,5.2,4.4,5.2
		C248.9,358.7,250.3,356.2,250.3,353.6z"/>
	<path class="st0" d="M255.2,343.2v-2.5h2.4v2.5H255.2z M257.6,360.4h-2.3v-13.6h2.3V360.4z"/>
	<path class="st0" d="M273.3,340.7v19.6H271v-1.5h-0.6c-0.8,0.9-2.1,1.8-4.2,1.8c-3.8,0-6-3.1-6-7.2s2.2-7.2,6-7.2
		c2.2,0,3.4,0.8,4.2,1.8h0.6v-7.5h2.3V340.7z M271,353.6c0-2.7-1.2-5.2-4.3-5.2c-2.7,0-4.2,2.1-4.2,5.2c0,3,1.5,5.2,4.2,5.2
		C269.8,358.7,271,356.2,271,353.6z"/>
</g>
<g>
	<path class="st0" d="M699.8,263.5c1.6,0.8,2.7,2.5,2.7,4.5c0,3.1-2.1,5.4-6.5,5.4h-8.6v-19.3h8.4c4.1,0,6.2,2.2,6.2,4.9
		c0,1.7-0.7,3.2-2.1,3.9v0.6H699.8z M689.8,262.3h5.9c2.1,0,3.8-0.7,3.8-3.1c0-2.2-1.9-2.9-3.8-2.9h-5.9V262.3z M695.8,271.2
		c2.2,0,4.2-0.8,4.2-3.5c0-2.5-1.9-3.3-4.2-3.3h-6v6.8H695.8z"/>
	<path class="st0" d="M707.2,259.7v8.2c0,2.5,1.2,3.8,3.5,3.8c2.4,0,4-2.1,4-4.5v-7.4h2.3v13.6h-2.2v-1.5h-0.6
		c-0.8,1.1-2.3,1.8-4.1,1.8c-3.3,0-5.2-2.1-5.2-5.3v-8.6h2.3V259.7z"/>
	<path class="st0" d="M720.5,256.2v-2.5h2.4v2.5H720.5z M722.8,273.3h-2.3v-13.6h2.3V273.3z"/>
	<path class="st0" d="M728.7,253.7v19.6h-2.3v-19.6L728.7,253.7L728.7,253.7z"/>
	<path class="st0" d="M744.3,253.7v19.6h-2.2v-1.5h-0.6c-0.8,0.9-2.1,1.8-4.2,1.8c-3.8,0-6-3.1-6-7.2s2.2-7.2,6-7.2
		c2.2,0,3.4,0.8,4.2,1.8h0.6v-7.5h2.2V253.7z M742.1,266.5c0-2.7-1.2-5.2-4.3-5.2c-2.7,0-4.2,2.1-4.2,5.2c0,3,1.5,5.2,4.2,5.2
		C740.8,271.7,742.1,269.2,742.1,266.5z"/>
	<path class="st0" d="M759.6,266.5h-10.4c0.1,3.2,1.5,5.2,4.3,5.2c1.9,0,3.1-0.8,3.5-2.1h2.3c-0.4,2.3-2.4,4.1-5.8,4.1
		c-4.2,0-6.6-3.1-6.6-7.3c0-4.2,2.4-7,6.6-7c4,0,6,3,6.1,6.3L759.6,266.5L759.6,266.5z M749.4,264.6h7.9c-0.1-1.7-1.5-3.2-3.8-3.2
		C751,261.4,749.7,262.9,749.4,264.6z"/>
	<path class="st0" d="M770,261.9h-1.1c-2.7,0-4.3,1.6-4.3,4.6v6.8h-2.3v-13.6h2.2v1.6h0.6c0.7-0.8,2-1.6,3.9-1.6h1L770,261.9
		L770,261.9z"/>
	<path class="st0" d="M777.6,277.2h-2.2c-2.3-2.8-4.3-6.9-4.3-12.2c0-5.3,1.9-9.3,4.1-12.1h2.2c-2.2,2.9-4.2,6.7-4.2,12.1
		C773.3,270.3,775.4,274.2,777.6,277.2z"/>
	<path class="st0" d="M783.7,252.9h2.2c2.2,2.8,4.1,6.7,4.1,12.1s-1.9,9.4-4.3,12.2h-2.2c2.2-2.9,4.3-6.8,4.3-12.2
		C787.9,259.6,785.9,255.8,783.7,252.9z"/>
	<path class="st0" d="M698.6,313.2c-0.5,2.7-2.6,4.5-5.7,4.5c-4.2,0-6.6-3.1-6.6-7.2s2.4-7.2,6.6-7.2c3.2,0,5.2,1.8,5.6,4.3h-2.3
		c-0.4-1.4-1.5-2.3-3.3-2.3c-3.1,0-4.3,2.4-4.3,5.1s1.3,5.2,4.3,5.2c1.9,0,3.1-0.9,3.4-2.5h2.3V313.2z"/>
	<path class="st0" d="M708.9,305.9h-1.1c-2.7,0-4.3,1.6-4.3,4.6v6.8h-2.3v-13.6h2.2v1.6h0.6c0.7-0.8,2-1.6,3.9-1.6h1L708.9,305.9
		L708.9,305.9z"/>
	<path class="st0" d="M722.7,310.5h-10.4c0.1,3.2,1.5,5.2,4.3,5.2c1.9,0,3.1-0.8,3.5-2.1h2.3c-0.4,2.3-2.4,4.1-5.8,4.1
		c-4.2,0-6.6-3.1-6.6-7.3c0-4.2,2.4-7,6.6-7c4,0,6,3,6.1,6.3L722.7,310.5L722.7,310.5z M712.5,308.6h7.9c-0.1-1.7-1.5-3.2-3.8-3.2
		C714.1,305.4,712.8,306.9,712.5,308.6z"/>
	<path class="st0" d="M734,315.9h-0.6c-0.8,1.1-2.3,1.8-4.2,1.8c-3.1,0-4.9-2.1-4.9-4.4c0-2.2,1.4-4.5,5.2-4.5h4.4v-0.5
		c0-1.6-0.9-2.8-3.3-2.8c-2,0-3.1,0.8-3.2,2h-2.3c0.2-2.5,2.3-4,5.4-4c3.4,0,5.6,1.6,5.6,4.7v9.3H734V315.9z M733.9,311.8v-1.2h-4.1
		c-2.2,0-3.3,1-3.3,2.6c0,1.5,1.1,2.5,3.2,2.5C732,315.7,733.9,314,733.9,311.8z"/>
	<path class="st0" d="M746,303.7v2h-3.4v7.5c0,1.4,0.6,2.1,2.4,2.1h1v2.1h-1c-2.9,0-4.7-0.9-4.7-3.8v-7.8H738v-2h2.3v-4.1h2.3v4.1
		h3.4V303.7z"/>
	<path class="st0" d="M760.4,310.5H750c0.1,3.2,1.5,5.2,4.3,5.2c1.9,0,3.1-0.8,3.5-2.1h2.3c-0.4,2.3-2.4,4.1-5.8,4.1
		c-4.2,0-6.6-3.1-6.6-7.3c0-4.2,2.4-7,6.6-7c4,0,6,3,6.1,6.3L760.4,310.5L760.4,310.5z M750.2,308.6h7.9c-0.1-1.7-1.5-3.2-3.8-3.2
		C751.9,305.4,750.5,306.9,750.2,308.6z"/>
	<path class="st0" d="M771.5,298.1c4.2,0,6.5,2.2,6.5,5.7c0,3.6-2.3,5.8-6.5,5.8h-5.7v7.7h-2.4V298L771.5,298.1L771.5,298.1z
		 M771,307.5c3.3,0,4.5-1.4,4.5-3.6s-1.2-3.6-4.5-3.6h-5.3v7.2H771z"/>
	<path class="st0" d="M788.2,305.9h-1.1c-2.7,0-4.3,1.6-4.3,4.6v6.8h-2.3v-13.6h2.2v1.6h0.6c0.7-0.8,2-1.6,3.9-1.6h1L788.2,305.9
		L788.2,305.9z"/>
	<path class="st0" d="M802.8,310.5c0,4-2.5,7.2-6.7,7.2c-4.3,0-6.7-3.1-6.7-7.2s2.4-7.2,6.7-7.2
		C800.4,303.4,802.8,306.5,802.8,310.5z M800.5,310.5c0-2.7-1.4-5.2-4.4-5.2s-4.4,2.5-4.4,5.2s1.4,5.2,4.4,5.2
		S800.5,313.2,800.5,310.5z"/>
	<path class="st0" d="M817.7,297.7v19.6h-2.2v-1.5h-0.6c-0.8,0.9-2.1,1.8-4.2,1.8c-3.8,0-6-3.1-6-7.2s2.2-7.2,6-7.2
		c2.2,0,3.4,0.8,4.2,1.8h0.6v-7.5h2.2V297.7z M815.4,310.5c0-2.7-1.2-5.2-4.3-5.2c-2.7,0-4.2,2.1-4.2,5.2c0,3,1.5,5.2,4.2,5.2
		C814.1,315.7,815.4,313.2,815.4,310.5z"/>
	<path class="st0" d="M823.2,303.7v8.2c0,2.5,1.2,3.8,3.5,3.8c2.4,0,4-2.1,4-4.5v-7.4h2.3v13.6h-2.2v-1.5h-0.6
		c-0.8,1.1-2.3,1.8-4.1,1.8c-3.3,0-5.2-2.1-5.2-5.3v-8.6h2.3V303.7z"/>
	<path class="st0" d="M848,313.2c-0.5,2.7-2.6,4.5-5.7,4.5c-4.2,0-6.6-3.1-6.6-7.2s2.4-7.2,6.6-7.2c3.2,0,5.2,1.8,5.6,4.3h-2.3
		c-0.4-1.4-1.5-2.3-3.3-2.3c-3.1,0-4.3,2.4-4.3,5.1s1.3,5.2,4.3,5.2c1.9,0,3.1-0.9,3.4-2.5h2.3V313.2z"/>
	<path class="st0" d="M857.1,303.7v2h-3.4v7.5c0,1.4,0.6,2.1,2.4,2.1h1v2.1H856c-2.9,0-4.7-0.9-4.7-3.8v-7.8H849v-2h2.3v-4.1h2.3
		v4.1h3.5V303.7z"/>
	<path class="st0" d="M865.5,321.2h-2.2c-2.3-2.8-4.3-6.9-4.3-12.2c0-5.3,1.9-9.3,4.1-12.1h2.2c-2.2,2.9-4.2,6.7-4.2,12.1
		C861.1,314.3,863.3,318.2,865.5,321.2z"/>
	<path class="st0" d="M871.6,296.9h2.2c2.2,2.8,4.1,6.7,4.1,12.1s-1.9,9.4-4.3,12.2h-2.2c2.2-2.9,4.3-6.8,4.3-12.2
		C875.7,303.6,873.7,299.8,871.6,296.9z"/>
	<path class="st0" d="M880.3,306.9v-3.1h2.8v3.1H880.3z M880.3,317.3v-3.1h2.8v3.1H880.3z"/>
	<path class="st0" d="M899.2,307.5c1.6,0.8,2.7,2.5,2.7,4.5c0,3.1-2.1,5.4-6.5,5.4h-8.6v-19.3h8.4c4.1,0,6.2,2.2,6.2,4.9
		c0,1.7-0.7,3.2-2.1,3.9v0.6H899.2z M889.1,306.3h5.9c2.1,0,3.8-0.7,3.8-3.1c0-2.2-1.9-2.9-3.8-2.9h-5.9V306.3z M895.2,315.2
		c2.2,0,4.2-0.8,4.2-3.5c0-2.5-1.9-3.3-4.2-3.3h-6v6.8H895.2z"/>
	<path class="st0" d="M906.5,303.7v8.2c0,2.5,1.2,3.8,3.5,3.8c2.4,0,4-2.1,4-4.5v-7.4h2.3v13.6h-2.2v-1.5h-0.6
		c-0.8,1.1-2.3,1.8-4.1,1.8c-3.3,0-5.2-2.1-5.2-5.3v-8.6h2.3V303.7z"/>
	<path class="st0" d="M919.8,300.2v-2.5h2.4v2.5H919.8z M922.2,317.3h-2.3v-13.6h2.3V317.3z"/>
	<path class="st0" d="M928,297.7v19.6h-2.3v-19.6H928z"/>
	<path class="st0" d="M943.7,297.7v19.6h-2.2v-1.5h-0.6c-0.8,0.9-2.1,1.8-4.2,1.8c-3.8,0-6-3.1-6-7.2s2.2-7.2,6-7.2
		c2.2,0,3.4,0.8,4.2,1.8h0.6v-7.5h2.2V297.7z M941.4,310.5c0-2.7-1.2-5.2-4.3-5.2c-2.7,0-4.2,2.1-4.2,5.2c0,3,1.5,5.2,4.2,5.2
		C940.2,315.7,941.4,313.2,941.4,310.5z"/>
	<path class="st0" d="M959,310.5h-10.4c0.1,3.2,1.5,5.2,4.3,5.2c1.9,0,3.1-0.8,3.5-2.1h2.3c-0.4,2.3-2.4,4.1-5.8,4.1
		c-4.2,0-6.6-3.1-6.6-7.3c0-4.2,2.4-7,6.6-7c4,0,6,3,6.1,6.3L959,310.5L959,310.5z M948.7,308.6h7.9c-0.1-1.7-1.5-3.2-3.8-3.2
		C950.4,305.4,949,306.9,948.7,308.6z"/>
	<path class="st0" d="M969.4,305.9h-1.1c-2.7,0-4.3,1.6-4.3,4.6v6.8h-2.3v-13.6h2.2v1.6h0.6c0.7-0.8,2-1.6,3.9-1.6h1L969.4,305.9
		L969.4,305.9z"/>
	<path class="st0" d="M700.1,354.5c0,4-2.2,7.2-6,7.2c-2.2,0-3.5-0.9-4.2-1.8h-0.6v1.5h-2.2v-19.6h2.3v7.5h0.6c0.7-1,2-1.8,4.2-1.8
		C697.9,347.4,700.1,350.4,700.1,354.5z M697.8,354.5c0-3-1.5-5.2-4.2-5.2c-3,0-4.3,2.5-4.3,5.2s1.2,5.2,4.3,5.2
		C696.4,359.7,697.8,357.6,697.8,354.5z"/>
	<path class="st0" d="M704.8,347.7v8.2c0,2.5,1.2,3.8,3.5,3.8c2.4,0,4-2.1,4-4.5v-7.4h2.3v13.6h-2.2v-1.5h-0.6
		c-0.8,1.1-2.3,1.8-4.1,1.8c-3.3,0-5.2-2.1-5.2-5.3v-8.6h2.3V347.7z"/>
	<path class="st0" d="M718.1,344.2v-2.5h2.4v2.5H718.1z M720.5,361.3h-2.3v-13.6h2.3V361.3z"/>
	<path class="st0" d="M726.3,341.7v19.6H724v-19.6H726.3z"/>
	<path class="st0" d="M742,341.7v19.6h-2.2v-1.5h-0.6c-0.8,0.9-2.1,1.8-4.2,1.8c-3.8,0-6-3.1-6-7.2s2.2-7.2,6-7.2
		c2.2,0,3.4,0.8,4.2,1.8h0.6v-7.5h2.2V341.7z M739.7,354.5c0-2.7-1.2-5.2-4.3-5.2c-2.7,0-4.2,2.1-4.2,5.2c0,3,1.5,5.2,4.2,5.2
		C738.5,359.7,739.7,357.2,739.7,354.5z"/>
	<path class="st0" d="M753.9,342.1c4.2,0,6.5,2.2,6.5,5.7c0,3.6-2.3,5.8-6.5,5.8h-5.7v7.7h-2.4V342L753.9,342.1L753.9,342.1z
		 M753.5,351.5c3.3,0,4.5-1.4,4.5-3.6s-1.2-3.6-4.5-3.6h-5.3v7.2H753.5z"/>
	<path class="st0" d="M771.2,359.9h-0.6c-0.8,1.1-2.3,1.8-4.2,1.8c-3.1,0-4.9-2.1-4.9-4.4c0-2.2,1.4-4.5,5.2-4.5h4.4v-0.5
		c0-1.6-0.9-2.8-3.3-2.8c-2,0-3.1,0.8-3.2,2h-2.3c0.2-2.5,2.3-4,5.4-4c3.4,0,5.6,1.6,5.6,4.7v9.3h-2.2L771.2,359.9L771.2,359.9z
		 M771.1,355.8v-1.2H767c-2.2,0-3.3,1-3.3,2.6c0,1.5,1.1,2.5,3.2,2.5C769.2,359.7,771.1,358,771.1,355.8z"/>
	<path class="st0" d="M784.4,349.9h-1.1c-2.7,0-4.3,1.6-4.3,4.6v6.8h-2.3v-13.6h2.2v1.6h0.6c0.7-0.8,2-1.6,3.9-1.6h1L784.4,349.9
		L784.4,349.9z"/>
	<path class="st0" d="M793.9,347.7v2h-3.4v7.5c0,1.4,0.6,2.1,2.4,2.1h1v2.1h-1.1c-2.9,0-4.7-0.9-4.7-3.8v-7.8h-2.3v-2h2.3v-4.1h2.3
		v4.1h3.5V347.7z"/>
	<path class="st0" d="M796.1,359.2h4.5v-14.3h-0.5l-4,2.7v-2.5l3.9-2.7h2.9v16.8h4.1v2.1h-11L796.1,359.2L796.1,359.2z"/>
	<path class="st0" d="M815,365.2h-2.2c-2.3-2.8-4.3-6.9-4.3-12.2c0-5.3,1.9-9.3,4.1-12.1h2.2c-2.2,2.9-4.2,6.7-4.2,12.1
		C810.7,358.3,812.8,362.2,815,365.2z"/>
	<path class="st0" d="M825.7,350.5c2.9,0.6,4.8,2.1,4.8,5.4c0,3-2.4,5.7-7.3,5.7c-4.5,0-7.4-2.4-7.7-5.7h2.5
		c0.4,2.6,2.8,3.5,5.4,3.5c2.7,0,4.7-1.2,4.7-3.5c0-2.1-1.4-2.9-3.3-3.3c-1-0.2-2.9-0.6-3.8-0.8c-2.8-0.6-4.7-2.1-4.7-4.9
		c0-3,2.4-5.3,6.8-5.3c4,0,6.6,2.1,7,5.2h-2.5c-0.5-1.9-1.8-3-4.6-3c-2.3,0-4.3,1.1-4.3,3.1c0,1.9,1.6,2.5,3.3,2.8
		C822.9,350,824.7,350.3,825.7,350.5z"/>
	<path class="st0" d="M840,347.7v2h-3.4v7.5c0,1.4,0.6,2.1,2.4,2.1h1v2.1h-1.1c-2.9,0-4.7-0.9-4.7-3.8v-7.8h-2.3v-2h2.3v-4.1h2.3
		v4.1h3.5V347.7z"/>
	<path class="st0" d="M850.6,349.9h-1.1c-2.7,0-4.3,1.6-4.3,4.6v6.8h-2.3v-13.6h2.2v1.6h0.6c0.7-0.8,2-1.6,3.9-1.6h1L850.6,349.9
		L850.6,349.9z"/>
	<path class="st0" d="M852.6,344.2v-2.5h2.4v2.5H852.6z M855,361.3h-2.3v-13.6h2.3V361.3z"/>
	<path class="st0" d="M868.4,361.3v-8.2c0-2.5-1.2-3.8-3.5-3.8c-2.4,0-4,2.1-4,4.5v7.4h-2.3v-13.6h2.2v1.5h0.6
		c0.8-1.1,2.3-1.8,4.1-1.8c3.3,0,5.2,2.1,5.2,5.3v8.6h-2.3V361.3z"/>
	<path class="st0" d="M886.1,347.7v12.9c0,3.8-2.4,6.3-6.3,6.3c-3.5,0-5.8-1.5-6.2-4.2h2.3c0.4,1.6,1.8,2.2,3.9,2.2
		c2.8,0,4.1-1.7,4.1-4.4v-1.1h-0.6c-0.7,0.9-2,1.8-4.1,1.8c-3.8,0-6-3-6-6.9c0-4,2.3-7,6-7c2.1,0,3.4,0.9,4.2,1.8h0.6v-1.5h2.1
		V347.7z M883.9,354.4c0-2.6-1.4-5-4.3-5c-2.7,0-4.2,2-4.2,5c0,2.9,1.5,4.9,4.2,4.9C882.5,359.3,883.9,356.9,883.9,354.4z"/>
	<path class="st0" d="M887.7,340.9h2.2c2.2,2.8,4.1,6.7,4.1,12.1s-1.9,9.4-4.3,12.2h-2.2c2.2-2.9,4.3-6.8,4.3-12.2
		C891.8,347.6,889.8,343.8,887.7,340.9z"/>
	<path class="st0" d="M896.4,350.9v-3.1h2.8v3.1H896.4z M896.4,361.3v-3.1h2.8v3.1H896.4z"/>
	<path class="st0" d="M915.3,351.5c1.6,0.8,2.7,2.5,2.7,4.5c0,3.1-2.1,5.4-6.5,5.4h-8.6v-19.3h8.4c4.1,0,6.2,2.2,6.2,4.9
		c0,1.7-0.7,3.2-2.1,3.9v0.6H915.3z M905.3,350.3h5.9c2.1,0,3.8-0.7,3.8-3.1c0-2.2-1.9-2.9-3.8-2.9h-5.9V350.3z M911.3,359.2
		c2.2,0,4.2-0.8,4.2-3.5c0-2.5-1.9-3.3-4.2-3.3h-6v6.8H911.3z"/>
	<path class="st0" d="M922.7,347.7v8.2c0,2.5,1.2,3.8,3.5,3.8c2.4,0,4-2.1,4-4.5v-7.4h2.3v13.6h-2.2v-1.5h-0.6
		c-0.8,1.1-2.3,1.8-4.1,1.8c-3.3,0-5.2-2.1-5.2-5.3v-8.6h2.3V347.7z"/>
	<path class="st0" d="M935.9,344.2v-2.5h2.4v2.5H935.9z M938.3,361.3H936v-13.6h2.3V361.3z"/>
	<path class="st0" d="M944.1,341.7v19.6h-2.3v-19.6H944.1z"/>
	<path class="st0" d="M959.8,341.7v19.6h-2.2v-1.5H957c-0.8,0.9-2.1,1.8-4.2,1.8c-3.8,0-6-3.1-6-7.2s2.2-7.2,6-7.2
		c2.2,0,3.4,0.8,4.2,1.8h0.6v-7.5h2.2V341.7z M957.5,354.5c0-2.7-1.2-5.2-4.3-5.2c-2.7,0-4.2,2.1-4.2,5.2c0,3,1.5,5.2,4.2,5.2
		C956.3,359.7,957.5,357.2,957.5,354.5z"/>
	<path class="st0" d="M975.1,354.5h-10.4c0.1,3.2,1.5,5.2,4.3,5.2c1.9,0,3.1-0.8,3.5-2.1h2.3c-0.4,2.3-2.4,4.1-5.8,4.1
		c-4.2,0-6.6-3.1-6.6-7.3c0-4.2,2.4-7,6.6-7c4,0,6,3,6.1,6.3L975.1,354.5L975.1,354.5z M964.9,352.6h7.9c-0.1-1.7-1.5-3.2-3.8-3.2
		C966.5,349.4,965.2,350.9,964.9,352.6z"/>
	<path class="st0" d="M985.5,349.9h-1.1c-2.7,0-4.3,1.6-4.3,4.6v6.8h-2.3v-13.6h2.2v1.6h0.6c0.7-0.8,2-1.6,3.9-1.6h1L985.5,349.9
		L985.5,349.9z"/>
	<path class="st0" d="M700.1,398.5c0,4-2.2,7.2-6,7.2c-2.2,0-3.5-0.9-4.2-1.8h-0.6v1.5h-2.2v-19.6h2.3v7.5h0.6c0.7-1,2-1.8,4.2-1.8
		C697.9,391.4,700.1,394.4,700.1,398.5z M697.8,398.5c0-3-1.5-5.2-4.2-5.2c-3,0-4.3,2.5-4.3,5.2s1.2,5.2,4.3,5.2
		C696.4,403.7,697.8,401.6,697.8,398.5z"/>
	<path class="st0" d="M704.8,391.7v8.2c0,2.5,1.2,3.8,3.5,3.8c2.4,0,4-2.1,4-4.5v-7.4h2.3v13.6h-2.2v-1.5h-0.6
		c-0.8,1.1-2.3,1.8-4.1,1.8c-3.3,0-5.2-2.1-5.2-5.3v-8.6h2.3V391.7z"/>
	<path class="st0" d="M718.1,388.2v-2.5h2.4v2.5H718.1z M720.5,405.3h-2.3v-13.6h2.3V405.3z"/>
	<path class="st0" d="M726.3,385.7v19.6H724v-19.6H726.3z"/>
	<path class="st0" d="M742,385.7v19.6h-2.2v-1.5h-0.6c-0.8,0.9-2.1,1.8-4.2,1.8c-3.8,0-6-3.1-6-7.2s2.2-7.2,6-7.2
		c2.2,0,3.4,0.8,4.2,1.8h0.6v-7.5h2.2V385.7z M739.7,398.5c0-2.7-1.2-5.2-4.3-5.2c-2.7,0-4.2,2.1-4.2,5.2c0,3,1.5,5.2,4.2,5.2
		C738.5,403.7,739.7,401.2,739.7,398.5z"/>
	<path class="st0" d="M753.9,386.1c4.2,0,6.5,2.2,6.5,5.7c0,3.6-2.3,5.8-6.5,5.8h-5.7v7.7h-2.4V386L753.9,386.1L753.9,386.1z
		 M753.5,395.5c3.3,0,4.5-1.4,4.5-3.6s-1.2-3.6-4.5-3.6h-5.3v7.2H753.5z"/>
	<path class="st0" d="M771.2,403.9h-0.6c-0.8,1.1-2.3,1.8-4.2,1.8c-3.1,0-4.9-2.1-4.9-4.4c0-2.2,1.4-4.5,5.2-4.5h4.4v-0.5
		c0-1.6-0.9-2.8-3.3-2.8c-2,0-3.1,0.8-3.2,2h-2.3c0.2-2.5,2.3-4,5.4-4c3.4,0,5.6,1.6,5.6,4.7v9.3h-2.2L771.2,403.9L771.2,403.9z
		 M771.1,399.8v-1.2H767c-2.2,0-3.3,1-3.3,2.6c0,1.5,1.1,2.5,3.2,2.5C769.2,403.7,771.1,402,771.1,399.8z"/>
	<path class="st0" d="M784.4,393.9h-1.1c-2.7,0-4.3,1.6-4.3,4.6v6.8h-2.3v-13.6h2.2v1.6h0.6c0.7-0.8,2-1.6,3.9-1.6h1L784.4,393.9
		L784.4,393.9z"/>
	<path class="st0" d="M793.9,391.7v2h-3.4v7.5c0,1.4,0.6,2.1,2.4,2.1h1v2.1h-1.1c-2.9,0-4.7-0.9-4.7-3.8v-7.8h-2.3v-2h2.3v-4.1h2.3
		v4.1h3.5V391.7z"/>
	<path class="st0" d="M796,391.7c0.2-3.8,2.9-5.6,6.3-5.6c3.5,0,6.1,2,6.1,5.7c0,2.6-1.9,5-4.2,6.8l-4.8,4v0.6h9.5v2.1h-13v-2.7
		l2.8-2.3c1.5-1.2,3.3-2.7,4.3-3.6c1.3-1.2,2.9-2.7,2.9-4.9c0-2.4-1.5-3.6-3.8-3.6c-2.1,0-3.6,1.1-3.9,3.5H796z"/>
	<path class="st0" d="M817.1,409.2h-2.2c-2.3-2.8-4.3-6.9-4.3-12.2c0-5.3,1.9-9.3,4.1-12.1h2.2c-2.2,2.9-4.2,6.7-4.2,12.1
		C812.8,402.3,814.9,406.2,817.1,409.2z"/>
	<path class="st0" d="M827.8,394.5c2.9,0.6,4.8,2.1,4.8,5.4c0,3-2.4,5.7-7.3,5.7c-4.5,0-7.4-2.4-7.7-5.7h2.5
		c0.4,2.6,2.8,3.5,5.4,3.5c2.7,0,4.7-1.2,4.7-3.5c0-2.1-1.4-2.9-3.3-3.3c-1-0.2-2.9-0.6-3.8-0.8c-2.8-0.6-4.7-2.1-4.7-4.9
		c0-3,2.4-5.3,6.8-5.3c4,0,6.6,2.1,7,5.2h-2.5c-0.5-1.9-1.8-3-4.6-3c-2.3,0-4.3,1.1-4.3,3.1c0,1.9,1.6,2.5,3.3,2.8
		C825,394,826.8,394.3,827.8,394.5z"/>
	<path class="st0" d="M842.1,391.7v2h-3.4v7.5c0,1.4,0.6,2.1,2.4,2.1h1v2.1H841c-2.9,0-4.7-0.9-4.7-3.8v-7.8H834v-2h2.3v-4.1h2.3
		v4.1h3.5V391.7z"/>
	<path class="st0" d="M852.7,393.9h-1.1c-2.7,0-4.3,1.6-4.3,4.6v6.8H845v-13.6h2.2v1.6h0.6c0.7-0.8,2-1.6,3.9-1.6h1L852.7,393.9
		L852.7,393.9z"/>
	<path class="st0" d="M854.8,388.2v-2.5h2.4v2.5H854.8z M857.1,405.3h-2.3v-13.6h2.3V405.3z"/>
	<path class="st0" d="M870.5,405.3v-8.2c0-2.5-1.2-3.8-3.5-3.8c-2.4,0-4,2.1-4,4.5v7.4h-2.3v-13.6h2.2v1.5h0.6
		c0.8-1.1,2.3-1.8,4.1-1.8c3.3,0,5.2,2.1,5.2,5.3v8.6h-2.3V405.3z"/>
	<path class="st0" d="M888.2,391.7v12.9c0,3.8-2.4,6.3-6.3,6.3c-3.5,0-5.8-1.5-6.2-4.2h2.3c0.4,1.6,1.8,2.2,3.9,2.2
		c2.8,0,4.1-1.7,4.1-4.4v-1.1h-0.6c-0.7,0.9-2,1.8-4.1,1.8c-3.8,0-6-3-6-6.9c0-4,2.3-7,6-7c2.1,0,3.4,0.9,4.2,1.8h0.6v-1.5h2.1
		V391.7z M886,398.4c0-2.6-1.4-5-4.3-5c-2.7,0-4.2,2-4.2,5c0,2.9,1.5,4.9,4.2,4.9C884.6,403.3,886,400.9,886,398.4z"/>
	<path class="st0" d="M889.8,384.9h2.2c2.2,2.8,4.1,6.7,4.1,12.1s-1.9,9.4-4.3,12.2h-2.2c2.2-2.9,4.3-6.8,4.3-12.2
		C894,391.6,892,387.8,889.8,384.9z"/>
	<path class="st0" d="M898.5,394.9v-3.1h2.8v3.1H898.5z M898.5,405.3v-3.1h2.8v3.1H898.5z"/>
	<path class="st0" d="M917.9,395.5c1.6,0.8,2.7,2.5,2.7,4.5c0,3.1-2.1,5.4-6.5,5.4h-8.6v-19.3h8.4c4.1,0,6.2,2.2,6.2,4.9
		c0,1.7-0.7,3.2-2.1,3.9v0.6H917.9z M907.9,394.3h5.9c2.1,0,3.8-0.7,3.8-3.1c0-2.2-1.9-2.9-3.8-2.9h-5.9V394.3z M914,403.2
		c2.2,0,4.2-0.8,4.2-3.5c0-2.5-1.9-3.3-4.2-3.3h-6v6.8H914z"/>
	<path class="st0" d="M925.3,391.7v8.2c0,2.5,1.2,3.8,3.5,3.8c2.4,0,4-2.1,4-4.5v-7.4h2.3v13.6h-2.2v-1.5h-0.6
		c-0.8,1.1-2.3,1.8-4.1,1.8c-3.3,0-5.2-2.1-5.2-5.3v-8.6h2.3V391.7z"/>
	<path class="st0" d="M938.6,388.2v-2.5h2.4v2.5H938.6z M941,405.3h-2.3v-13.6h2.3V405.3z"/>
	<path class="st0" d="M946.8,385.7v19.6h-2.3v-19.6H946.8z"/>
	<path class="st0" d="M962.5,385.7v19.6h-2.2v-1.5h-0.6c-0.8,0.9-2.1,1.8-4.2,1.8c-3.8,0-6-3.1-6-7.2s2.2-7.2,6-7.2
		c2.2,0,3.4,0.8,4.2,1.8h0.6v-7.5h2.2V385.7z M960.2,398.5c0-2.7-1.2-5.2-4.3-5.2c-2.7,0-4.2,2.1-4.2,5.2c0,3,1.5,5.2,4.2,5.2
		C959,403.7,960.2,401.2,960.2,398.5z"/>
	<path class="st0" d="M977.8,398.5h-10.4c0.1,3.2,1.5,5.2,4.3,5.2c1.9,0,3-0.8,3.5-2.1h2.3c-0.4,2.3-2.4,4.1-5.8,4.1
		c-4.2,0-6.6-3.1-6.6-7.3c0-4.2,2.4-7,6.6-7c4,0,6,3,6.1,6.3L977.8,398.5L977.8,398.5z M967.5,396.6h7.9c-0.1-1.7-1.5-3.2-3.8-3.2
		C969.2,393.4,967.8,394.9,967.5,396.6z"/>
	<path class="st0" d="M988.1,393.9H987c-2.7,0-4.3,1.6-4.3,4.6v6.8h-2.3v-13.6h2.2v1.6h0.6c0.7-0.8,2-1.6,3.9-1.6h1L988.1,393.9
		L988.1,393.9z"/>
</g>
<g>
	<g>
		<path class="st0" d="M138.4,225.9c5.9,0,8.9,3.8,8.9,9.6s-3,9.6-8.9,9.6h-7.6v-19.3L138.4,225.9L138.4,225.9z M138.2,242.3
			c4.3,0,5.9-3,5.9-6.7s-1.6-6.7-5.9-6.7h-4.1v13.4H138.2z"/>
		<path class="st0" d="M150.9,228.5v-2.9h3.1v2.9H150.9z M153.9,245.2h-3.1v-13.7h3.1V245.2z"/>
		<path class="st0" d="M166.8,234.3h-1.2c-2.8,0-4.3,1.6-4.3,4.5v6.4h-3.1v-13.7h2.9v1.6h0.6c0.6-0.8,1.7-1.6,3.8-1.6h1.2v2.8H166.8
			z"/>
		<path class="st0" d="M182,238.6h-10.1c0.1,2.8,1.4,4.4,3.9,4.4c1.6,0,2.6-0.6,3-1.8h3.1c-0.5,2.6-2.6,4.3-6.1,4.3
			c-4.3,0-6.9-3-6.9-7.3s2.6-7.1,6.8-7.1c4.1,0,6.3,2.9,6.4,6.5L182,238.6L182,238.6z M172,236.3h6.9c-0.2-1.5-1.3-2.8-3.3-2.8
			C173.4,233.5,172.4,234.7,172,236.3z"/>
		<path class="st0" d="M197.4,240.8c-0.4,2.8-2.7,4.8-6,4.8c-4.3,0-6.8-3-6.8-7.2s2.5-7.2,6.8-7.2c3.4,0,5.5,1.8,5.9,4.5h-3
			c-0.4-1.2-1.3-1.9-2.9-1.9c-2.7,0-3.8,2.1-3.8,4.6s1.1,4.7,3.8,4.7c1.7,0,2.7-0.8,3-2.2h3V240.8z"/>
		<path class="st0" d="M207.8,231.5v2.6h-3.2v6.7c0,1.2,0.6,1.8,2.1,1.8h1.1v2.6h-1.2c-3.1,0-5.1-0.9-5.1-4v-7.1h-2.2v-2.6h2.2v-4
			h3.1v4H207.8z"/>
		<path class="st0" d="M224.3,238.3c0,4.2-2.6,7.2-6.9,7.2s-6.9-3-6.9-7.2s2.6-7.2,6.9-7.2S224.3,234.1,224.3,238.3z M221.3,238.3
			c0-2.4-1.2-4.6-3.9-4.6s-3.9,2.2-3.9,4.6c0,2.5,1.2,4.6,3.9,4.6S221.3,240.8,221.3,238.3z"/>
		<path class="st0" d="M236.3,234.3h-1.2c-2.8,0-4.3,1.6-4.3,4.5v6.4h-3.1v-13.7h2.9v1.6h0.6c0.6-0.8,1.7-1.6,3.8-1.6h1.2v2.8H236.3
			z"/>
	</g>
	<g>
		<circle class="st3" cx="111.1" cy="234.9" r="14.5"/>
		<g>
			<path class="st4" d="M118.8,237.8c-0.5,3.4-3.3,5.7-7.2,5.7c-5.1,0-8.1-3.6-8.1-8.6s3-8.6,8.1-8.6c4,0,6.6,2.2,7.1,5.4h-3.6
				c-0.5-1.4-1.5-2.3-3.5-2.3c-3.3,0-4.5,2.5-4.5,5.5s1.3,5.6,4.5,5.6c2.1,0,3.2-0.9,3.6-2.6L118.8,237.8L118.8,237.8z"/>
		</g>
	</g>
</g>
<g>
	<g>
		<path class="st0" d="M807.9,193.4c1.5,0.7,2.6,2.3,2.6,4.3c0,3.1-2.1,5.5-6.6,5.5h-9v-19.3h8.7c4.2,0,6.3,2.3,6.3,5
			c0,1.7-0.7,3.1-2,3.9V193.4z M803.3,191.8c2.4,0,3.2-0.9,3.2-2.6s-0.9-2.5-3.2-2.5h-5.2v5.1H803.3z M803.4,200.4
			c2.7,0,3.7-1.1,3.7-2.9c0-1.8-1-2.9-3.7-2.9h-5.3v5.8L803.4,200.4L803.4,200.4z"/>
		<path class="st0" d="M816.8,189.5v8c0,2.2,1,3.4,3.1,3.4c2.2,0,3.6-1.9,3.6-4v-7.3h3v13.7h-2.9V202H823c-0.8,1.1-2.1,1.7-4,1.7
			c-3.4,0-5.2-2.1-5.2-5.5v-8.6L816.8,189.5L816.8,189.5z"/>
		<path class="st0" d="M830.7,186.5v-2.9h3.1v2.9H830.7z M833.7,203.2h-3.1v-13.7h3.1V203.2z"/>
		<path class="st0" d="M841,183.6v19.6h-3v-19.6H841z"/>
		<path class="st0" d="M854.3,190.8h0.6v-7.2h3.1v19.6h-2.9v-1.3h-0.6c-0.8,0.9-2,1.7-4,1.7c-3.7,0-5.9-3.1-5.9-7.2
			c0-4.1,2.2-7.2,5.9-7.2C852.4,189.1,853.6,189.8,854.3,190.8z M855.1,196.3c0-2.4-1.1-4.6-3.8-4.6c-2.5,0-3.8,2-3.8,4.6
			c0,2.7,1.2,4.6,3.8,4.6C853.9,201,855.1,198.8,855.1,196.3z"/>
		<path class="st0" d="M874.6,196.6h-10.1c0.1,2.8,1.4,4.4,3.9,4.4c1.6,0,2.6-0.6,3-1.8h3.1c-0.5,2.6-2.6,4.3-6.1,4.3
			c-4.3,0-6.9-3-6.9-7.3s2.6-7.1,6.8-7.1c4.1,0,6.3,2.9,6.4,6.5v1H874.6z M864.6,194.3h6.9c-0.2-1.5-1.3-2.8-3.3-2.8
			C866,191.5,864.9,192.7,864.6,194.3z"/>
		<path class="st0" d="M886.6,192.3h-1.2c-2.8,0-4.3,1.6-4.3,4.5v6.4H878v-13.7h2.9v1.6h0.6c0.6-0.8,1.7-1.6,3.8-1.6h1.2
			L886.6,192.3L886.6,192.3z"/>
	</g>
	<g>
		<circle class="st3" cx="770.3" cy="193.3" r="14.5"/>
		<g>
			<path class="st4" d="M778,196.3c-0.5,3.4-3.3,5.7-7.2,5.7c-5.1,0-8.1-3.6-8.1-8.6s3-8.6,8.1-8.6c4,0,6.6,2.2,7.1,5.4h-3.6
				c-0.5-1.4-1.5-2.3-3.5-2.3c-3.3,0-4.5,2.5-4.5,5.5s1.3,5.6,4.5,5.6c2.1,0,3.2-0.9,3.6-2.6L778,196.3L778,196.3z"/>
		</g>
	</g>
</g>
<g>
	<g>
		<path class="st0" d="M736.5,675.4c-0.6,3.6-3.5,6.2-7.9,6.2c-5.8,0-9.1-4.2-9.1-10s3.3-10,9.1-10c4.1,0,6.9,2.3,7.6,5.7h-3.4
			c-0.6-1.8-1.9-2.8-4.2-2.8c-4,0-5.8,3.2-5.8,7s1.8,7,5.8,7c2.4,0,3.9-1.2,4.5-3.2L736.5,675.4L736.5,675.4z"/>
		<path class="st0" d="M753,674.3c0,4.2-2.6,7.2-6.9,7.2s-6.9-3-6.9-7.2s2.6-7.2,6.9-7.2S753,670.1,753,674.3z M750,674.3
			c0-2.4-1.2-4.6-3.9-4.6s-3.9,2.2-3.9,4.6c0,2.5,1.2,4.6,3.9,4.6S750,676.8,750,674.3z"/>
		<path class="st0" d="M766.1,681.2v-8c0-2.2-1-3.4-3.1-3.4c-2.2,0-3.6,1.9-3.6,4v7.3h-3.1v-13.7h2.9v1.3h0.6c0.8-1.1,2.1-1.7,4-1.7
			c3.4,0,5.2,2.1,5.2,5.5v8.6h-2.9V681.2z"/>
		<path class="st0" d="M785.2,676.8c-0.4,2.8-2.7,4.8-6,4.8c-4.3,0-6.8-3-6.8-7.2s2.5-7.2,6.8-7.2c3.4,0,5.5,1.8,5.9,4.5h-3
			c-0.4-1.2-1.3-1.9-2.9-1.9c-2.7,0-3.8,2.1-3.8,4.6s1.1,4.7,3.8,4.7c1.7,0,2.7-0.8,3-2.2L785.2,676.8L785.2,676.8z"/>
		<path class="st0" d="M797.1,670.3h-1.2c-2.8,0-4.3,1.6-4.3,4.5v6.4h-3.1v-13.7h2.9v1.6h0.6c0.6-0.8,1.7-1.6,3.8-1.6h1.2
			L797.1,670.3L797.1,670.3z"/>
		<path class="st0" d="M812.3,674.6h-10.1c0.1,2.8,1.4,4.4,3.9,4.4c1.6,0,2.6-0.6,3-1.8h3.1c-0.5,2.6-2.6,4.3-6.1,4.3
			c-4.3,0-6.9-3-6.9-7.3s2.6-7.1,6.8-7.1c4.1,0,6.3,2.9,6.4,6.5v1H812.3z M802.3,672.3h6.9c-0.2-1.5-1.3-2.8-3.3-2.8
			C803.7,669.5,802.7,670.7,802.3,672.3z"/>
		<path class="st0" d="M822.7,667.5v2.6h-3.2v6.7c0,1.2,0.6,1.8,2.1,1.8h1.1v2.6h-1.2c-3,0-5.1-0.9-5.1-4v-7.1h-2.1v-2.6h2.2v-4h3.1
			v4H822.7z"/>
		<path class="st0" d="M838.6,674.6h-10.1c0.1,2.8,1.4,4.4,3.9,4.4c1.6,0,2.6-0.6,3-1.8h3.1c-0.5,2.6-2.6,4.3-6.1,4.3
			c-4.3,0-6.9-3-6.9-7.3s2.6-7.1,6.8-7.1c4.1,0,6.3,2.9,6.4,6.5v1H838.6z M828.6,672.3h6.9c-0.2-1.5-1.3-2.8-3.3-2.8
			C830,669.5,828.9,670.7,828.6,672.3z"/>
		<path class="st0" d="M855.2,671.4c1.5,0.7,2.6,2.3,2.6,4.3c0,3.1-2.1,5.5-6.6,5.5h-9v-19.3h8.7c4.2,0,6.3,2.3,6.3,5
			c0,1.7-0.7,3.1-2,3.9V671.4z M850.6,669.8c2.4,0,3.2-0.9,3.2-2.6c0-1.6-0.9-2.5-3.2-2.5h-5.2v5.1H850.6z M850.7,678.4
			c2.7,0,3.7-1.1,3.7-2.9c0-1.8-1-2.9-3.7-2.9h-5.3v5.8L850.7,678.4L850.7,678.4z"/>
		<path class="st0" d="M864.1,667.5v8c0,2.2,1,3.4,3,3.4c2.2,0,3.6-1.9,3.6-4v-7.3h3v13.7h-2.9V680h-0.6c-0.8,1.1-2.1,1.7-4,1.7
			c-3.4,0-5.2-2.1-5.2-5.5v-8.6h3.1V667.5z"/>
		<path class="st0" d="M878,664.5v-2.9h3.1v2.9H878z M881,681.2h-3v-13.7h3V681.2z"/>
		<path class="st0" d="M888.4,661.6v19.6h-3.1v-19.6H888.4z"/>
		<path class="st0" d="M901.6,668.8h0.6v-7.2h3.1v19.6h-2.9v-1.3h-0.6c-0.8,0.9-2,1.7-4,1.7c-3.7,0-5.9-3.1-5.9-7.2
			c0-4.1,2.2-7.2,5.9-7.2C899.7,667.1,900.9,667.8,901.6,668.8z M902.4,674.3c0-2.4-1.1-4.6-3.8-4.6c-2.5,0-3.8,2-3.8,4.6
			c0,2.7,1.2,4.6,3.8,4.6C901.2,679,902.4,676.8,902.4,674.3z"/>
		<path class="st0" d="M921.9,674.6h-10.1c0.1,2.8,1.4,4.4,3.9,4.4c1.6,0,2.6-0.6,3-1.8h3.1c-0.5,2.6-2.6,4.3-6.1,4.3
			c-4.3,0-6.9-3-6.9-7.3s2.6-7.1,6.8-7.1c4.1,0,6.3,2.9,6.4,6.5v1H921.9z M911.9,672.3h6.9c-0.2-1.5-1.3-2.8-3.3-2.8
			C913.3,669.5,912.2,670.7,911.9,672.3z"/>
		<path class="st0" d="M933.9,670.3h-1.2c-2.8,0-4.3,1.6-4.3,4.5v6.4h-3v-13.7h2.9v1.6h0.6c0.6-0.8,1.7-1.6,3.8-1.6h1.2V670.3z"/>
	</g>
	<g>
		<circle class="st3" cx="701.8" cy="671.2" r="14.5"/>
		<g>
			<path class="st4" d="M709.5,674.2c-0.5,3.4-3.3,5.7-7.2,5.7c-5.1,0-8.1-3.6-8.1-8.6s3-8.6,8.1-8.6c4,0,6.6,2.2,7.1,5.4h-3.6
				c-0.5-1.4-1.5-2.3-3.5-2.3c-3.3,0-4.5,2.5-4.5,5.5s1.3,5.6,4.5,5.6c2.1,0,3.2-0.9,3.6-2.6h3.6V674.2z"/>
		</g>
	</g>
</g>
<g>
	<g>
		<path class="st0" d="M1381.2,619.3c4.3,0,6.7,2.2,6.7,5.9c0,3.8-2.4,6-6.7,6h-5.2v7.3h-3.2v-19.3L1381.2,619.3L1381.2,619.3z
			 M1380.7,628.4c2.9,0,3.9-1.2,3.9-3.1c0-2-1.1-3.1-3.9-3.1h-4.8v6.2L1380.7,628.4L1380.7,628.4z"/>
		<path class="st0" d="M1399.8,627.7h-1.2c-2.8,0-4.3,1.6-4.3,4.5v6.4h-3.1v-13.7h2.9v1.6h0.6c0.6-0.8,1.7-1.6,3.8-1.6h1.2
			L1399.8,627.7L1399.8,627.7z"/>
		<path class="st0" d="M1415.8,631.7c0,4.2-2.6,7.2-6.9,7.2s-6.9-3-6.9-7.2s2.6-7.2,6.9-7.2C1413.1,624.5,1415.8,627.5,1415.8,631.7
			z M1412.7,631.7c0-2.4-1.2-4.6-3.9-4.6c-2.7,0-3.9,2.2-3.9,4.6c0,2.5,1.2,4.6,3.9,4.6S1412.7,634.2,1412.7,631.7z"/>
		<path class="st0" d="M1428.2,626.2h0.6V619h3.1v19.6h-2.9v-1.3h-0.6c-0.8,0.9-2,1.7-4,1.7c-3.7,0-5.9-3.1-5.9-7.2
			c0-4.1,2.2-7.2,5.9-7.2C1426.3,624.5,1427.5,625.2,1428.2,626.2z M1429,631.7c0-2.4-1.1-4.6-3.8-4.6c-2.5,0-3.8,2-3.8,4.6
			c0,2.7,1.2,4.6,3.8,4.6S1429,634.2,1429,631.7z"/>
		<path class="st0" d="M1439,624.9v8c0,2.2,1,3.4,3.1,3.4c2.2,0,3.6-1.9,3.6-4V625h3v13.7h-2.9v-1.3h-0.6c-0.8,1.1-2.1,1.7-4,1.7
			c-3.4,0-5.2-2.1-5.2-5.5V625h3V624.9z"/>
		<path class="st0" d="M1464.9,634.2c-0.4,2.8-2.7,4.8-6,4.8c-4.3,0-6.8-3-6.8-7.2s2.5-7.2,6.8-7.2c3.4,0,5.5,1.8,5.9,4.5h-3
			c-0.4-1.2-1.3-1.9-2.9-1.9c-2.7,0-3.8,2.1-3.8,4.6s1.1,4.7,3.8,4.7c1.7,0,2.7-0.8,3-2.2L1464.9,634.2L1464.9,634.2z"/>
		<path class="st0" d="M1475.3,624.9v2.6h-3.2v6.7c0,1.2,0.6,1.8,2.1,1.8h1.1v2.6h-1.2c-3.1,0-5.1-0.9-5.1-4v-7.1h-2.2v-2.6h2.2v-4
			h3v4H1475.3z"/>
	</g>
	<g>
		<circle class="st3" cx="1354" cy="628.4" r="14.5"/>
		<g>
			<path class="st4" d="M1361.7,631.3c-0.5,3.4-3.3,5.7-7.2,5.7c-5.1,0-8.1-3.6-8.1-8.6s3-8.6,8.1-8.6c4,0,6.6,2.2,7.1,5.4h-3.6
				c-0.5-1.4-1.5-2.3-3.5-2.3c-3.3,0-4.5,2.5-4.5,5.5s1.3,5.6,4.5,5.6c2.1,0,3.2-0.9,3.6-2.6h3.6V631.3z"/>
		</g>
	</g>
</g>
<g>
	<circle class="st3" cx="61.6" cy="306.6" r="8.5"/>
	<g>
		<path class="st3" d="M76.8,298.7c-0.3,2.3-2.2,3.8-4.8,3.8c-3.4,0-5.4-2.4-5.4-5.8s2-5.7,5.4-5.7c2.7,0,4.4,1.5,4.7,3.6h-2.4
			c-0.3-0.9-1-1.5-2.3-1.5c-2.2,0-3,1.7-3,3.7s0.9,3.7,3,3.7c1.4,0,2.2-0.6,2.4-1.7h2.4V298.7z"/>
	</g>
</g>
<g>
	<circle class="st3" cx="61.6" cy="353.3" r="8.5"/>
</g>
<g>
	<circle class="st3" cx="664.5" cy="311" r="8.5"/>
	<g>
		<path class="st3" d="M676.9,302.8h-4.5l-1,3.1h-1.8l3.6-10.9h2.9l3.6,10.9h-1.9L676.9,302.8z M672.9,301.2h3.4l-1.4-4.4h-0.7
			L672.9,301.2z"/>
	</g>
</g>
<g>
	<circle class="st3" cx="664.5" cy="356" r="8.5"/>
	<g>
		<path class="st3" d="M676.9,347.8h-4.5l-1,3.1h-1.8l3.6-10.9h2.9l3.6,10.9h-1.9L676.9,347.8z M672.9,346.2h3.4l-1.4-4.4h-0.7
			L672.9,346.2z"/>
	</g>
</g>
<g>
	<circle class="st3" cx="664.5" cy="397.5" r="8.5"/>
	<g>
		<path class="st3" d="M676.9,389.3h-4.5l-1,3.1h-1.8l3.6-10.9h2.9l3.6,10.9h-1.9L676.9,389.3z M672.9,387.6h3.4l-1.4-4.4h-0.7
			L672.9,387.6z"/>
	</g>
</g>
<g>
	<g>
		<path class="st3" d="M677,260.9c-0.3,2.3-2.2,3.8-4.8,3.8c-3.4,0-5.4-2.4-5.4-5.8s2-5.7,5.4-5.7c2.7,0,4.4,1.5,4.7,3.6h-2.4
			c-0.3-0.9-1-1.5-2.3-1.5c-2.2,0-3,1.7-3,3.7s0.9,3.7,3,3.7c1.4,0,2.2-0.6,2.4-1.7h2.4V260.9z"/>
	</g>
	<polygon class="st0" points="671.6,273.3 656,273.3 663.8,259.1 	"/>
</g>
<g>
	<circle class="st3" cx="658.7" cy="749.1" r="8.5"/>
	<g>
		<path class="st3" d="M673.9,741.2c-0.3,2.3-2.2,3.8-4.8,3.8c-3.4,0-5.4-2.4-5.4-5.8c0-3.4,2-5.7,5.4-5.7c2.7,0,4.4,1.5,4.7,3.6
			h-2.4c-0.3-0.9-1-1.5-2.3-1.5c-2.2,0-3,1.7-3,3.7s0.9,3.7,3,3.7c1.4,0,2.2-0.6,2.4-1.7L673.9,741.2L673.9,741.2z"/>
	</g>
</g>
<g>
	<circle class="st3" cx="658.7" cy="794.8" r="8.5"/>
</g>
<g>
	<circle class="st3" cx="658.7" cy="838.3" r="8.5"/>
</g>
<g>
	<circle class="st3" cx="658.7" cy="881.8" r="8.5"/>
</g>
<g>
	<circle class="st3" cx="1276" cy="789.1" r="8.5"/>
	<g>
		<path class="st3" d="M1291.2,781.2c-0.3,2.3-2.2,3.8-4.8,3.8c-3.4,0-5.4-2.4-5.4-5.8c0-3.4,2-5.7,5.4-5.7c2.7,0,4.4,1.5,4.7,3.6
			h-2.4c-0.3-0.9-1-1.5-2.3-1.5c-2.2,0-3,1.7-3,3.7s0.9,3.7,3,3.7c1.4,0,2.2-0.6,2.4-1.7L1291.2,781.2L1291.2,781.2z"/>
	</g>
</g>
<g>
	<circle class="st3" cx="1276" cy="834.8" r="8.5"/>
</g>
<g>
	<circle class="st3" cx="1276" cy="878.3" r="8.5"/>
</g>
<g>
	<circle class="st3" cx="1276" cy="921.8" r="8.5"/>
</g>
<g>
	<circle class="st3" cx="1276" cy="968.5" r="8.5"/>
</g>
<g>
	<circle class="st3" cx="658.7" cy="929.8" r="8.5"/>
</g>
<rect x="1268.5" y="682.5" class="st0" width="15.1" height="15.1"/>
<rect x="1268.5" y="727.5" class="st0" width="15.1" height="15.1"/>
<g>
	<g>
		<path class="st3" d="M789.1,189.9l-1.1-3.8h-5l-1.2,3.8h-2.9l4.6-14h4l4.6,14H789.1z M787.1,183.5l-1.5-4.8h-0.4l-1.4,4.8H787.1z"
			/>
		<path class="st4" d="M787.3,176.2l4.4,13.3h-2.3l-1.1-3.8h-5.5l-1.2,3.8h-2.2l4.4-13.3H787.3 M783.4,183.8h4.2l-1.7-5.4H785
			L783.4,183.8 M787.8,175.6h-0.5h-3.5h-0.5l-0.1,0.4l-4.4,13.3l-0.3,0.8h0.9h2.2h0.5l0.1-0.4l1.1-3.4h4.6l1,3.3l0.1,0.5h0.5h2.3
			h0.9l-0.3-0.8l-4.4-13.3L787.8,175.6L787.8,175.6z M784.2,183.2l1.2-4l1.3,4H784.2L784.2,183.2z"/>
	</g>
</g>
</svg>
